<?xml version="1.0" encoding="utf-8"?>
<!-- Generator: Adobe Illustrator 16.0.0, SVG Export Plug-In . SVG Version: 6.00 Build 0)  -->
<!DOCTYPE svg PUBLIC "-//W3C//DTD SVG 1.1//EN" "http://www.w3.org/Graphics/SVG/1.1/DTD/svg11.dtd">
<svg version="1.1" xmlns="http://www.w3.org/2000/svg" xmlns:xlink="http://www.w3.org/1999/xlink" x="0px" y="0px" width="216px"
	 height="216px" viewBox="0 0 216 216" enable-background="new 0 0 216 216" xml:space="preserve">
<g id="backup" display="none">
	<g display="inline">
		<path fill="#C1272D" d="M539.536,402H536v15h4.394c1.204,0,2.114-0.775,2.706-1.428s0.9-2.215,0.9-3.786v-3.826
			c0-2-0.354-3.704-1.038-4.479S541.129,402,539.536,402z"/>
		<path fill="#C1272D" d="M542.104,395.623c0.696-0.703,0.896-2.214,0.896-3.886v-2.449c0-1.571-0.127-2.598-0.68-3.323
			c-0.554-0.724-1.294-0.965-2.523-0.965H536v12h3.151C540.523,397,541.409,396.328,542.104,395.623z"/>
		<path fill="#C1272D" d="M464.509,385H461v15h3.509c1.144,0,1.552-0.5,2.103-1.133c0.553-0.631,0.389-1.887,0.389-3.396v-6.581
			c0-1.511,0.164-2.454-0.389-3.077C466.061,385.19,465.652,385,464.509,385z"/>
		<path fill="#C1272D" d="M514.016,384.268c-2.397,0-4.016,1.438-4.016,4.315v23.693c0,2.897,1.618,4.347,4.016,4.347
			c2.377,0,3.984-1.449,3.984-4.347v-23.693C518,385.706,516.393,384.268,514.016,384.268z"/>
		<path fill="#C1272D" d="M564.516,384.268c-2.397,0-3.516,1.438-3.516,4.315v23.693c0,2.897,1.118,4.347,3.516,4.347
			c2.377,0,3.484-1.449,3.484-4.347v-23.693C568,385.706,566.893,384.268,564.516,384.268z"/>
		<path fill="#C1272D" d="M444,221v216h216V221H444z M475,395.043c0,3.53-0.979,6.279-2.699,8.125
			c-1.721,1.848-4.398,2.832-7.8,2.832H461v17h-7v-44h10.494c3.403,0,6.082,0.669,7.805,2.527c1.723,1.856,2.701,4.291,2.701,7.821
			V395.043z M500,423h-8v-19h-8v19h-6v-44h6v18h8v-18h8V423z M525,411.848c0,3.51-0.854,6.225-2.652,8.143s-4.363,2.878-7.736,2.878
			c-3.371,0-6.027-0.96-7.836-2.878c-1.808-1.918-2.775-4.633-2.775-8.143v-22.835c0-3.511,0.979-6.225,2.787-8.144
			c1.807-1.918,4.438-2.877,7.81-2.877s5.934,0.959,7.731,2.877c1.798,1.919,2.672,4.633,2.672,8.144V411.848z M551,411.971
			c0,3.387-0.957,6.279-2.731,8.055c-1.776,1.775-4.447,2.975-7.875,2.975H530v-44h9.965c3.53,0,5.523,0.567,7.164,2.22
			c1.644,1.654,1.871,3.935,1.871,7.363v1.562c0,4.489-0.827,7.438-3.807,8.847c3.429,1.327,5.807,4.459,5.807,9.398V411.971z
			 M576,411.848c0,3.51-1.225,6.225-3.021,8.143s-4.547,2.878-7.919,2.878c-3.371,0-5.752-0.96-7.562-2.878
			c-1.806-1.918-2.498-4.633-2.498-8.143v-22.835c0-3.511,0.611-6.225,2.418-8.144c1.809-1.918,4.255-2.877,7.627-2.877
			s6.209,0.959,8.007,2.877c1.798,1.919,2.948,4.633,2.948,8.144V411.848z M596.688,420.006c-1.755,1.907-4.232,2.862-7.433,2.862
			c-3.199,0-5.626-0.955-7.526-2.862c-1.902-1.908-2.729-4.628-2.729-8.158V409h8v3.276c0,2.856,0.512,4.285,2.715,4.285
			c2.205,0,3.012-1.429,3.012-4.285c0-1.225-0.395-2.378-0.885-3.459c-0.489-1.082-1.193-2.057-1.966-2.923
			c-0.771-0.868-1.665-1.735-2.606-2.603c-0.942-0.867-1.924-1.775-2.91-2.724c-0.987-0.949-1.891-1.954-2.69-3.016
			s-1.457-2.327-1.968-3.796c-0.508-1.469-0.767-3.052-0.767-4.744c0-3.531,0.935-6.25,2.81-8.159
			c1.875-1.907,4.4-2.861,7.576-2.861s5.998,0.954,7.722,2.861c1.725,1.909,2.958,4.628,2.958,8.159V391h-7v-2.417
			c0-2.877-1.289-4.315-3.605-4.315c-1.148,0-2.074,0.341-2.648,1.025c-0.573,0.684-0.893,1.78-0.893,3.29
			c0,1.225,0.234,2.378,0.736,3.46c0.503,1.081,1.14,2.056,1.93,2.923c0.789,0.867,1.662,1.734,2.625,2.603
			c0.964,0.866,1.921,1.775,2.882,2.724c0.959,0.949,1.83,1.954,2.616,3.015c0.785,1.062,1.427,2.327,1.927,3.796
			c0.5,1.47,0.75,3.052,0.75,4.745C599.319,415.378,598.442,418.098,596.688,420.006z M610,423h-6v-6h6V423z M626,411.48
			c0,7.347-3.179,11.02-9.79,11.02c-1.471,0-2.21-0.041-3.21-0.122v-6.275c1,0.041,1.13,0.062,2.218,0.062
			c1.251,0,2.131-0.307,2.828-0.918c0.696-0.613,0.954-1.704,0.954-3.275V379h7V411.48z M647.471,420.006
			c-1.755,1.907-4.232,2.862-7.432,2.862c-3.2,0-5.519-0.955-7.42-2.862c-1.902-1.908-2.619-4.628-2.619-8.158V409h6v3.276
			c0,2.856,1.404,4.285,3.607,4.285c2.204,0,3.457-1.429,3.457-4.285c0-1.225-0.171-2.378-0.661-3.459
			c-0.49-1.082-1.083-2.057-1.856-2.923c-0.77-0.868-1.608-1.735-2.55-2.603s-1.896-1.775-2.883-2.724
			c-0.987-0.949-1.876-1.954-2.677-3.016c-0.8-1.062-1.45-2.327-1.961-3.796c-0.508-1.469-0.762-3.052-0.762-4.744
			c0-3.531,0.938-6.25,2.812-8.159c1.875-1.907,4.4-2.861,7.576-2.861s6.107,0.954,7.831,2.861c1.724,1.909,3.065,4.628,3.065,8.159
			V391h-7v-2.417c0-2.877-1.396-4.315-3.713-4.315c-1.148,0-2.129,0.341-2.703,1.025c-0.574,0.684-0.921,1.78-0.921,3.29
			c0,1.225,0.223,2.378,0.723,3.46c0.504,1.081,1.133,2.056,1.925,2.923c0.788,0.867,1.658,1.734,2.621,2.603
			c0.963,0.866,1.922,1.775,2.88,2.724c0.959,0.949,1.83,1.954,2.615,3.015c0.786,1.062,1.427,2.327,1.926,3.796
			c0.5,1.47,0.75,3.052,0.75,4.745C650.103,415.378,649.226,418.098,647.471,420.006z"/>
	</g>
</g>
<g id="guides">
</g>
<g id="Layer_4">
	<path fill="#FFFFFF" d="M204.154,1.213c0.223,2.274-0.02,4.643,0.283,6.813c0.532-0.639,1.055-1.184,1.703-1.704
		c-0.259,2.842-1.928,3.735-2.555,5.961c3.101-0.342-0.468,5.187,0.283,6.813l-1.986-0.852l-0.284,2.555
		c0.876,0,0.965,0.938,0.852,1.703c6.468,2.168-0.523,16.212-1.42,20.156c1.125-1.168,1.127-0.13,2.271-0.284
		c-1.031,1.217-0.709,2.743-1.986,3.69c2.33,2.707-3.101,17.903-2.272,7.665c-0.628-0.081-1.187-7.01-0.851-7.381
		c-0.471-0.115-0.637-0.087-1.136,0c-0.053-1.03-0.409-2.347-1.419-1.136c-0.547-0.56-0.963-0.88-1.704-1.135
		c0.134,0.78,0.333,1.514,0.568,2.271c-0.4-0.062-0.468-0.071-0.851,0c0.423,1.185,0.758,2.327,1.419,3.406
		c1.51-5.645,0.497,4.093,1.419,4.258c-0.234,0.496-0.454,0.753-0.852,1.136c1.849,2.245-0.387,5.194,3.405,5.962
		c-1.934,1.675-3.356,6.552-3.973,9.085l-1.137-0.286c0.631,1.962-0.69,2.983-0.567,4.826c-0.849,0.04-0.957,0.32-1.135,1.137
		c-1.104,0.066-4.967,7.714-5.111,9.367l-0.851-0.852c-1.042,2.193-1.697,4.438-3.407,6.246c0.852-4.616,3.275-7.497,5.347-11.641
		c0.773-1.545,1.707-4.625,3.737-3.974c1.014-5.134,2.075-10.072,2.587-15.317c0.191-1.972,1.461-5.001-1.45-5.405
		c1.206-1.027,1.656-3.802-0.284-4.258c0.298-0.678,0.458-1.255,0.567-1.987l-1.135,0.568c1.062-2.712-1.236-11.438-4.543-6.53
		c-0.383-1.343-0.613-2.546-1.987-3.123l-0.283,4.259c0.646-0.214,1.134-0.477,1.702-0.852l-0.851,1.987
		c-0.578-0.225-0.804-0.277-1.42-0.283c0.675,1.284,0.974,1.953,0.568,3.406c0.671-0.138,0.715-0.181,0.852-0.852
		c1.436,0.796,3.682-3.101,5.11-3.974c0.121,1.382,0.379,2.513-0.853,3.406l0.568,1.136c-1.138,0.438-3.851,1.045-1.988,2.271
		c-1.529,0.47-3.158,0.385-4.258,1.704c1.347,0.205,2.624-0.048,3.976,0.284c-0.455,0.42-0.599,0.585-0.853,1.135
		c2.554-0.312,2.641-2.372,4.542-3.123l-0.568,1.704l1.137-0.568l0.283,1.704c-1.475-0.287-2.566,0.168-3.406,1.419l3.123-0.852
		c-0.582,0.712-1.079,0.791-1.987,0.852c0.31,0.826,0.943,1.264,1.419,1.987l1.703-0.284c-0.389,0.469-0.52,0.497-1.135,0.568
		c0.117,0.872,0.335,1.31-0.284,1.986c1.856,2.161,1.271,5.744-1.419,6.529c0.504,1.659-0.805,2.088-2.272,2.271
		c0.046,0.685,0.138,1.316,0.284,1.987c-0.717-0.103-1.272-0.117-1.986,0c0.642,1.026,3.009,3.891,2.555,3.973
		c-2.592,2.16-2.468,4.927-5.006,7.443c-1.424,1.412-3.364,0.497-4.362,2.493c-0.718-1.098-5.132-1.268-6.245-0.567
		c-0.147-1.031-0.448-1.393-1.42-0.852c0.669-1.893,1.042-2.359,0-4.258c-0.505,0.278-0.453,0.258-0.567,0.852
		c-3.032-7.288,1.059-20.902,4.591-27.537c0.971-1.825,2.275-6.859,5.062-6.812c-0.519-2.6,4.353-4.965,1.136-6.529l0.283,1.419
		c-3.154-1.14-4.759,0.375-4.542,3.69l-0.853-0.567l0.285,1.419h-1.704c0.783,1.631-0.022,2.561-1.702,2.838v0.568h1.419
		c-0.872,2.391,0.203,4.2-3.123,3.69c0.279,0.507,0.258,0.452,0.853,0.567l-1.419,1.42c-0.045-1.135-0.394-2.132,0.851-2.556
		l-1.136-1.986c-2.129,0.694-2.71-0.418-4.541-1.136c0.795-1.662,0.841-2.705,2.555-3.69c-2.682-4.552-2.522,9.674-3.691,10.787
		c0.285-0.581,0.454-1.066,0.568-1.703c-1.515,0.208-1.605,0.23-2.839-0.567v1.136l-1.419-0.284c-0.088,0.643-0.183,0.9-0.568,1.419
		c0.28-0.42,0.284-0.342,0.284-0.852c-0.785,0.369-0.94,0.553-0.853,1.419l-1.419-0.283c0.613-0.756,0.746-1.117,0.285-1.987
		c0.516-0.147,0.938-0.322,1.419-0.567c-0.539-0.12-0.868-0.094-1.419,0c0.008-1.562,0.365-2.788,0.852-4.259l-1.704,0.853
		l0.853-0.568c-0.773-0.913-0.706-1.689-0.568-2.839c0.938,0.371,3.338,3.517,1.987,3.69c0.376,0.772,1.217,1.889,1.986,2.271
		c-0.228-1.812-2.139-8.598-3.974-8.516l0.852,0.284c-0.666,0.777-1.22,1.588-1.988,2.271c-0.121-1.589-1.068-2.409-1.135-4.258
		h1.135c-0.007,0.607,0.195,0.522,0.853,0.567c-0.102-1.36-0.84-2.145-1.135-3.406c2.604,0.797,0.196-2.903-0.286-3.69
		c-2.092,1.903-1.401,5.553-3.121,5.678l0.568,1.419c-2.205,0.239,0.08,2.286-0.426,3.69c-0.37,1.024-5.245,3.201-3.549,3.407
		c-0.648,0.449-1.262,0.824-1.988,1.135c0.26,1.03,0.096,1.856-0.282,2.839c0.606,0.434,0.711,0.682,0.851,1.42
		c-1.5-0.778-7.184,0.168-6.856,2.699c0.129,0.993,2.767,0.654,3.47,1.687c1.407,2.067-3.604,4.861-5.129,5.549
		c0.483,0.48,0.69,0.758,0.851,1.42c-1.456-0.494-1.126-1.258-0.851-2.555c-0.903,0.209-1.034,0.513-1.137,1.419
		c-1.441,0.039-2.032,0.444-3.406-0.284c-0.104,0.636-0.101,1.067,0,1.704c-0.626-0.229-0.688-0.345-0.567,0.284
		c-0.81-0.354-1.383-0.632-2.271-0.568c0.343-0.761,0.483-1.441,0.568-2.271l-0.852,0.284l0.568-1.135h-1.704
		c0.135,0.401,0.232,0.515,0.567,0.851l-1.702-0.283c0.529-0.663,1.091-1.199,1.42-1.987c-1.633,0.508-4.888,0.222-5.679,1.703
		c-1.088-2.021-8.214-0.996-10.504-1.419c0.145,1.101,0.753,1.828,1.136,2.838l-1.419-0.283l0.283,1.987
		c-2.517-0.573-5.854,0.59-5.961-2.839c-0.516,0.147-0.939,0.322-1.419,0.567c0.14-0.817,0.235-1.473,0-2.271
		c-1.064,1.391-3.702-0.146-2.839,2.838c-1.134-0.635-2.115-0.824-3.407-0.852c1.191,0.95,2.528,2.064,3.976,2.556
		c1.073-2.238,2.12,0.555,3.689,0.567c-2.301,1.628-3.675,1.176-3.689,4.541c1.636-0.245,1.902,0.533,2.271,1.988
		c7.146-4.642-3.447,5.774-3.123,4.258c0.863-0.057,1.312,0.022,1.987,0.568c0.991-0.731,4.484-1.962,5.394-1.136
		c0.858-0.89,1.191-0.504,2.271-0.568c-0.146,0.671-0.238,1.303-0.283,1.988c0.981-0.599,1.888-2.255,0.283-2.555
		c0.698-1.208,0.127-1.617-1.134-1.42c0.468-1.716,2.768-0.818,3.121,0.567c1.675-0.85,3.177,0.317,4.826,0.853
		c-0.232-0.576-0.355-0.775-0.852-1.137c0.797-0.398,1.017-0.374,0.852,0.284c1.063-0.644,1.409-1.364,1.703-2.555
		c0.262,0.543,0.39,0.508,0,0.852c0.26,0.481,0.423,0.892,0.567,1.419c0.844-0.163,1.924-0.213,1.136-1.135
		c0.871-0.175,0.671-0.438,0.283-1.136c1.245,0.28,2.125,1.809,3.352,1.808c1.335,0,4.739-3.008,6.585-3.511
		c-0.923,1.343-2.787,1.37-3.405,2.839c1.747,0.072,3.144-0.043,2.271,1.987c2.032-0.314,4.179,0.113,6.245,0.284
		c-1.372,1.899-4.813,1.747-7.097,1.987c2.062-3.982-5.147,2.498-2.556,3.405c0.565-1.305,2.16-0.853,3.407-0.853
		c-1.038,2.148-2.128,2.161-4.259,1.705c0.429,1.074,2.117,1.78,3.122,2.271l0.285-1.703c0.479,0.394,0.844,0.618,1.419,0.852
		c-0.103-0.846,0.118-1.455,0.283-2.271h1.419c-0.713-3.21,3.41-2.733,5.678-3.122l-0.567-1.136h1.42l-1.136,2.271
		c1.127-0.335,1.415-0.876,1.702-1.987c0.859,0.799,0.629,1.243,0.285,2.271c2.264-0.565,2.959-1.342,5.394-1.419
		c-1.163,0.743-2.312,1.227-2.84,2.556l1.705-0.853v2.271c2.615-0.956,2.807-1.505,3.974,0.852c1.068-1.594,1.919-1.986,3.123-0.284
		c-1.455,0.464-2.839,0.948-3.69,2.271c0.918,0.346,1.667,0.628,2.271,1.419c-1.224-0.4-2.236-0.46-3.123,0.567l0.284,0.284
		l1.42-0.568c-0.07,1.957-0.519,6.523-2.271,7.382c0.538,0.12,0.866,0.093,1.419,0c-0.375,0.769-0.631,1.089-1.419,1.419
		c0.478,0.691,0.623,0.953-0.285,1.136l0.852,0.851h-1.419c0.517,0.728,0.983,1.058,1.136,1.987
		c-0.797-0.221-1.021-0.304-1.136-1.135l-1.703,0.568c0.96,1.648,0.62,3.174-1.137,3.973c0.453,0.926,0.849,1.145,0.568,2.271
		c-0.398-0.32-0.686-0.63-1.136-0.853c-0.046,1.437-2.193,3.609-0.283,4.259c-1.069,1.327-2.261,1.995-3.975,1.986
		c0.26,0.483,0.422,0.893,0.567,1.42c-1.214-1.052-0.972-1.518-0.283-2.839c-0.553,0.266-0.724,0.396-1.136,0.853v-1.136
		c-1.428,0.517-1.951,0.448-3.406,0c0.26-0.63,0.328-1.022,0.284-1.703c0.937-0.152,0.671-1.188,2.271-1.135
		c-0.641-0.371-1.284-0.615-1.987-0.853c0.777-0.094,1.492-0.059,2.271,0l-1.135-1.986l1.135,0.852
		c0.457-2.379-0.477-1.688-1.986-1.42c0.563-0.466,1.052-0.808,1.702-1.137c-0.146-0.749-0.205-0.851,0.568-0.851
		c-0.223-0.449-0.531-0.738-0.852-1.136c1.524-0.329,1.857-1.045,1.702-2.554c-1.8,0.693-3.416-0.892-4.826,0.851
		c1.588,0.418-0.558,2.368-1.436,2.47c-0.886,0.103-1.733-1.013-2.538-1.333c0.257-0.501,0.414-0.884,0.567-1.421l-1.134,0.284
		v-1.419c1.687,0.658,2.924,0.225,4.54,0.568l0.284-1.137l1.136,0.568c-0.485-1.452-4.378-0.845-5.96-1.42
		c0.72-0.36,1.569-1.045,2.271-1.136c-1.96-2.051-2.866-4.744-1.42-7.38c-0.833-0.088-0.986,0.026-1.136,0.852
		c-0.251-0.626-0.436-1.048-0.283-1.704c-2.268-0.829-3.998,0.625-6.246,0.568c0.413,0.43,0.514,0.542,0.568,1.136
		c1.176,0.791,1.305,2.051,2.839,2.271c-1.393-1.635,0.813-3.692,1.595-2.133c0.673,1.344-0.968,2.995,0.107,4.971
		c-1.241,0.23-1.092,1.164-1.134,2.271c-1.109-0.752-2.08-0.958-3.407-0.852c-0.01-0.707-0.109-1.3-0.285-1.986l-1.134,0.284
		c-0.043-0.246-3.27-2.391-3.976-2.556l1.137,1.987h-2.838c2.162,3.462,0.898,2.605-2.272,2.271c0.569,1.3,0.128,1.893-0.852,2.84
		l-0.283-1.136c-2.852,0.919-4.582-0.143-7.097-1.136c1.204,3.449-2.138,1.316-3.692,3.122c0.928,0.021,1.667-0.001,2.556-0.284
		c-0.646,1.54-2.147,1.769-3.689,1.705v0.566c0.858-0.015,1.299,0.052,1.986,0.567c-1.289,0.085-2.421-0.16-3.691-0.283
		c0.154,3.097-5.402,2.812-5.677,5.109c-0.934-0.396-1.337-0.754-1.702-1.702l-1.137,0.283c0.409,0.809,0.906,1.524,1.42,2.271
		c-1.204,0.113-1.896,0.382-2.555,1.419c1.258,0,2.464,0.026,3.69-0.284c-1.033,2.991-2.658,3.064-5.11,1.703
		c-0.151,1.715-1.104,1.261-1.703,0c-1.033,0.199-1.872,0.297-2.555,1.136c0.537,0.155,0.92,0.311,1.42,0.568
		c-1.098-0.034-1.796-0.103-1.988,1.135c-0.745-0.307-0.93-0.962-1.703-1.135c0.684-0.448,0.98-1.104,1.703-1.42l-1.135-0.851
		c-0.516,0.164-0.875,0.088-1.419,0c0.416,0.625,0.915,1.144,1.419,1.702c-1.89,0.351-0.699,1.952,0.568,2.271
		c-1.352,0.812-1.892,1.831-3.407,1.137l0.283,2.27c-1.342-0.566-2.468-1.499-3.973-1.419c0.546-1.234,1.071-1.361,2.271-0.851
		c-0.014-1.106,0.059-2.206-1.137-2.557c-0.673,1.647-1.995,1.395-3.121,0.286c0.947-0.116,1.687-0.466,2.555-0.853
		c-3.642-1.83-3.599,2.607-2.839,4.542c-0.967-0.636-1.663-1.268-2.84-1.419c0.042,3.117-4.941,5.822-7.439,3.374
		c-0.962-0.938,0.533-1.069,1.195-0.536l1.703-0.568l-0.568,0.853c5.087-1.315,1.427-3.04-1.703-3.122
		c0.369-0.599,0.489-1.004,0.568-1.704c-2.776,1.038-3.483,2.541-6.812,1.704c0.277,0.505,0.258,0.453,0.851,0.567
		c-0.444,0.549-0.783,0.829-1.419,1.135l0.568,1.42c-1.476,0.099-2.094-0.69-3.407-1.135c0.794,1.291,2.027,2.133,2.271,3.689
		c-0.751-0.626-1.361-1.324-2.271-1.703l0.283,1.42l-1.702-0.852c0.183,0.712,0.396,1.126,0.851,1.703
		c-1.236,0.261-2.889,0.632-3.975,0.283l-0.567,1.419c-0.604-1.094-1.302-2.328-2.271-3.121c0.115,0.654,0.273,1.104,0.568,1.702
		c-1.826,0.4-1.642,2.25-2.555,3.69c0.604,0.096,0.707,0.132,1.136-0.284c0.702,0.477,1.139,0.591,1.987,0.568l-1.137-1.419
		c1.59,0,3.527,2.603,1.705,2.838c0.738,0.929,1.427,1.59,2.553,1.988c-0.237-0.581-0.34-0.648,0-1.137
		c-0.498-0.256-0.881-0.413-1.419-0.568l1.137-0.283c-0.34-0.505-0.642-0.768-1.137-1.136c3.154-0.343,1.84,2.44,2.556,2.84
		c-0.275,0.769-0.138,0.995,0.284,1.703c0.359-0.516,0.597-0.818,1.135-1.137c-0.185,2.482,1.455,3.343,1.704,5.395l-0.853-0.568
		c-1.763,1.122-3.013-1.394-3.407-2.839c1.843,0.204,0.027-1.229-0.851-1.419c0.319,4.07-1.875,0.927-3.407,0.568l0.285,1.419
		c-0.685-0.474-1.007-0.986-1.419-1.703c-0.826,0.86-1.498,0.338-2.556,0c2.093,4.439,13.564,6.82,13.91,11.639
		c0.693-0.025,1.021,0.323,1.419,0.852c-6.756-1.213-11.134-9.905-17.316-11.071c0.655-0.852,0.723-1.29,0.284-2.271h1.703
		c-0.496-1.206-2.16-2.013-3.407-2.271c0.538,0.809,1.3,1.312,1.988,1.988c-1.577-0.318-2.821-1.208-3.69-2.556l3.122,0.283
		c-0.411-0.807-0.684-1.357-0.568-2.271l-1.42,0.568c-0.148-0.836-0.293-0.996-1.134-0.851c0.147-0.671,0.238-1.303,0.283-1.988
		l-1.419,0.568c-0.136-1.116-1.192-0.684-0.852,0.283c-1.656-1.27-7.52-5.462-9.688-4.154c-1.935,1.168-0.07,5.856-1.121,5.986
		c-0.804,0.101-2.457-1.32-3.386-1.547c5.921,7.451,16.39,9.27,24.414,13.725c7.093,3.938,12.036,9.43,20.154,11.636
		c11.808,3.207,22.709,1.451,34.349-0.59c17.178-3.012,33.292-7.238,47.408-18.411c6.854-5.426,10.916-12.933,16.911-19.062
		c9.399-9.61,19.811-18.604,25.384-31.298c7.165-16.315,10.457-32.224,11.99-49.962c0.153-1.775-1.275-3.108-1.073-4.826
		C205.619,16.927,209.619,3.658,204.154,1.213 M122.261,11.399c-0.676-0.539-1.13-0.744-1.987-0.851
		c0.093,0.887,0.072,1.191,0.852,1.703c-1.155,0.679-2.374,1.432-3.69,1.703c0.438,1.14,0.96,2.006,0.284,3.123
		c-0.312-1.44-0.856-2.193-1.986-3.123c-0.374,1.666-0.896,3.434-0.568,5.11c-0.528-0.145-0.938-0.309-1.419-0.567
		c-0.448,1.067-1.002,1.958-1.137,3.123c1.484-0.377,1.92-1.141,2.839-2.271c0.117,0.528,0.749,7.753,1.704,3.69
		c0.781,0.285,1.194,0.252,1.988,0l-0.286,0.852l1.705-0.852v1.419c1.987-1.801,4.143-4.299,7.097-4.258
		c0-1.042,1.033-3.995-0.284-3.69c-0.094-1.832-3.03-1.689-3.974-0.568c0.229-0.875,0.489-1.726,0.851-2.555v0.852
		c0.933-0.286,1.733-0.603,2.555-1.136C124.917,11.709,124.501,7.633,122.261,11.399 M187.12,5.472c1.162,0-0.443,1.143-0.851,1.419
		c3.072,2.195,1.502,3.357,1.136,6.246c0.693-0.264,0.962-0.542,1.42-1.136c0.813,2.086,2.081,3.969,2.271,6.246
		c-0.684-0.983-0.917-2.057-1.42-3.123c-0.147,0.882,0.118,1.681,0.284,2.555c-0.528-0.655-0.893-0.909-1.703-1.136
		c-0.16,0.787-0.534,1.474-0.568,2.271l-1.419-0.283c1.294,2.871,1.127,2.555,3.975,3.406l-0.284-1.419
		c0.594,0.109,0.485,0.109,0.567-0.568c0.716,0.517,1.107,0.626,1.987,0.568c0.107,1.745,0.6,3.285,1.419,4.826
		c0.696-2.748,3.077-3.775,3.123-7.097c-2.542,3.565-3.674-3.199-3.69-5.11c-0.972,0.919-1.1,2.118-1.135,3.406h-0.568v-2.838
		c-0.383,0.398-0.641,0.618-1.136,0.852c-0.709-3.684-0.667-6.649-2.839-9.936L187.12,5.472 M183.147,14.556
		c-0.704-1.083-1.039-2.637-2.271-3.123c0.487,1.634,1.438,2.972,1.986,4.542l1.705-0.852c0.207,0.776,0.33,0.873,1.134,0.852
		l-0.567-1.419c1.566-0.366,1.616-2.312,1.703-3.69c-0.503,0.54-0.705,1.046-1.021,1.706c-2.233,4.669-1.391-4.661-0.696-3.797
		C183.116,6.281,182.928,13.631,183.147,14.556 M186.837,8.594c0.171,1.151,0.579,1.358,1.703,1.135
		C187.994,9.23,187.509,8.912,186.837,8.594 M203.869,8.878v0.852h0.568V8.878H203.869 M147.945,9.446
		c0.436,0.973,0.942,1.145,1.987,1.135c-0.059,0.532-0.06,0.889,0,1.419l-2.555-0.567c0.475,0.97,0.903,2.25,1.988,2.555
		c-0.524,0.617-0.995,1.03-1.704,1.419l0.283-1.136c-0.965,0.207-0.848,0.797-0.851,1.704c0.756-0.145,3.886-0.08,4.25-0.569
		C152.875,13.363,149.9,9.672,147.945,9.446 M143.83,9.872c-0.178,0.178,0.105,0.462,0.284,0.284
		C144.292,9.977,144.008,9.694,143.83,9.872 M172.927,12C173.854,8.197,170.026,11.116,172.927,12 M119.842,10.108
		c0.253,0,0.253,0.379,0,0.379C119.591,10.487,119.591,10.108,119.842,10.108 M190.527,10.014c0.265,0.553,0.396,0.724,0.853,1.135
		C191.319,10.372,191.293,10.178,190.527,10.014 M152.016,10.487c-0.015,0.016-0.032,0.315,0.095,0.189
		C152.126,10.66,152.141,10.36,152.016,10.487 M153.34,11.149c0.686,0.385,0.974,0.185,1.137-0.568L153.34,11.149 M200.748,12.569
		c1.57,0.241,1.911-0.517,1.702-1.988C201.619,11.118,201.206,11.692,200.748,12.569 M156.463,11.717h1.419
		C157.35,11.017,156.994,11.017,156.463,11.717 M159.585,10.865c0.338,1.126,0.845,1.336,1.988,1.419
		C160.954,11.635,160.424,11.189,159.585,10.865 M199.043,11.433l0.853-0.568C199.301,10.98,199.322,10.927,199.043,11.433
		 M124.1,11.149c-0.465,1.147-0.793,2.163-0.851,3.407C121.971,13.404,122.648,11.736,124.1,11.149 M165.167,11.244
		c-0.125,0.126,0.176,0.11,0.19,0.095C165.482,11.212,165.184,11.228,165.167,11.244 M49.3,11.575
		c-0.178,0.178,0.105,0.462,0.283,0.284C49.762,11.681,49.478,11.396,49.3,11.575 M126.938,11.433
		C129.337,14.745,120.906,17.227,126.938,11.433 M179.363,11.527c-0.128,0.126,0.173,0.11,0.188,0.095
		C179.679,11.496,179.378,11.512,179.363,11.527 M153.482,12.143c-0.178,0.178,0.105,0.462,0.283,0.284
		C153.943,12.248,153.66,11.965,153.482,12.143 M103.945,12.569c0.244,1.043,0.712,1.083,1.704,0.851
		C105.093,13.004,104.611,12.764,103.945,12.569 M164.694,12.569l0.285,0.283L164.694,12.569 M171.225,12.852
		c-1.219,1.142-2.317,1.493-3.975,1.419c0.387,0.421,0.561,0.465,1.135,0.568c-0.851,0.503-1.566,0.996-2.554,1.135l-0.284,1.136
		c-0.817-0.526-1.311-0.82-2.272-0.568c-0.336-1.189-0.688-2.818-1.985-3.123c0.682,2.627,2.521,4.582,2.838,7.381
		c-0.336-0.337-0.449-0.435-0.853-0.568c-0.146,1.43-0.411,2.629-1.419,3.69c0.561,0.994,1.13,2.083,1.987,2.839v-2.839h0.568
		c0.033,1.105,0.303,2.058,0.568,3.123l1.419-0.567c0.341,2.04,1.376-2.188,1.42-2.839c0.325,0.658,0.534,1.009,1.135,1.419v-1.704
		c1.426-0.198,1.764-1.476,3.691-1.135v-1.419c1.067,0.765,0.854,1.614,0.851,2.838c2.189-0.887,2.431-3.724,5.109-2.838
		c-0.36-1.69-1.498-3.7-3.121-1.704c-0.524-2.656-3.032-3.292-3.691-6.246H171.225 M158.592,13.562
		c-0.178,0.178,0.106,0.461,0.284,0.284C159.054,13.667,158.77,13.384,158.592,13.562 M131.198,14.84
		c0.717-0.243,0.859-0.428,1.135-1.136C131.605,13.913,131.487,14.135,131.198,14.84 M201.315,13.988l-0.285,1.419h0.568
		C201.559,14.875,201.496,14.485,201.315,13.988 M144.256,14.271c-0.641,0.843-1.558,1.297-1.987,2.271
		c0.771-0.306,1.446-0.487,2.271-0.567C144.5,15.372,144.458,14.84,144.256,14.271 M154.617,14.414
		c-0.179,0.178,0.106,0.462,0.284,0.284C155.079,14.52,154.795,14.236,154.617,14.414 M178.463,14.414
		c-0.179,0.178,0.106,0.462,0.284,0.284C178.925,14.52,178.641,14.236,178.463,14.414 M109.907,14.556
		c0.162,1.194,0.538,1.66,1.703,1.987C111.454,15.373,111.031,14.906,109.907,14.556 M164.316,14.934
		c-0.125,0.126,0.174,0.11,0.19,0.095C164.632,14.902,164.331,14.918,164.316,14.934 M187.688,17.678
		c-0.134-0.803-0.12-1.467,0-2.271C186.297,15.871,186.305,17.207,187.688,17.678 M157.882,15.691
		c-0.054,0.427-7.818,2.545-9.084,3.123c1.849,1.339,1.828-0.768,3.468-1.053c1.242-0.216,2.59,1.099,3.63,1.621l0.283-1.419
		c0.315,0.495,0.36,0.602,0.851,0.852c0.691-1.014,1.347-1.305,2.556-1.419C159.274,16.394,158.91,15.942,157.882,15.691
		 M119.842,16.259l1.42,0.284c-0.696,0.379-1.002,0.369-1.702,0L119.842,16.259 M156.463,16.921c0.251,0,0.251,0.379,0,0.379
		C156.211,17.3,156.211,16.921,156.463,16.921 M199.896,18.813c0.704-0.216,1.326-0.525,1.987-0.852
		C200.985,16.858,200.135,17.661,199.896,18.813 M179.457,17.394c0.115,0.594,0.062,0.573,0.566,0.852L179.457,17.394
		 M190.527,18.813c-0.776,0.082-1.274,0.035-1.987-0.283C189.394,18.155,189.801,18.243,190.527,18.813 M114.165,18.246v0.852
		l0.568-0.852H114.165 M152.962,18.625c-0.127,0.126,0.173,0.11,0.188,0.095C153.277,18.593,152.977,18.609,152.962,18.625
		 M157.598,21.084c1.174-0.591,1.377-1.28,1.419-2.554C157.947,19.184,157.684,19.852,157.598,21.084 M47.171,21.937
		C54.096,19.378,48.395,17.532,47.171,21.937 M191.096,18.908c0.253,0,0.253,0.378,0,0.378S190.843,18.908,191.096,18.908
		 M202.735,19.192c0.251,0,0.251,0.378,0,0.378C202.482,19.571,202.482,19.192,202.735,19.192 M152.771,19.949
		c0.466-0.154,0.413-0.104,0.568-0.568C153.007,19.601,152.992,19.616,152.771,19.949 M153.624,19.381
		c0.06,0.778,0.086,0.972,0.853,1.136c-2.363,1.8-2.136,4.01,0.851,4.542C155.141,23.192,156.025,19.996,153.624,19.381
		 M110.476,19.949c0.387,0.421,0.559,0.464,1.135,0.568C111.196,20.21,110.972,20.109,110.476,19.949 M179.741,19.949v0.568h0.851
		v-0.568H179.741 M198.76,21.369c0.523-0.464,0.803-0.805,1.136-1.419C199.123,20.295,198.936,20.541,198.76,21.369 M193.651,20.233
		c0.133,0.781,0.33,1.515,0.566,2.271C193.313,21.849,193.093,21.224,193.651,20.233 M159.585,21.652
		c0.604-0.255,0.596-0.249,0.852-0.851C159.766,20.938,159.723,20.981,159.585,21.652 M178.604,21.084
		c-0.48,2.861-2.09,2.899-4.541,2.839c1.496,2.336,4.411,2.062,3.973,1.987c0.543-0.921,1.534-1.946,2.556-2.271
		c-0.442-0.865-0.924-1.599-1.135-2.555H178.604 M190.812,21.084l1.134,3.407C192.431,23.038,192.024,21.975,190.812,21.084
		 M195.638,21.369v1.135h-0.853v-1.135H195.638 M154.477,21.652v1.42C153.688,22.539,153.688,22.186,154.477,21.652 M108.771,23.355
		c-2.712-0.504-8.769,1.787-8.557,5.386c0.115,1.949,1.952,1.733,0.325-0.844c1.537,0.287,2.111-0.462,3.405-1.135l-0.853,0.852
		l0.568,1.135c1.782-0.988,3.375-0.012,5.11-1.135l-0.853-0.852c0.946-0.485,1.082-0.946,1.137-1.987
		c0.696,0.087,1.289,0.082,1.987,0c-1.209-0.815-1.273-1.458-1.419-2.838C108.927,22.368,108.799,22.54,108.771,23.355
		 M57.958,22.22l-1.137,0.568C57.445,23.08,58.283,23.087,57.958,22.22 M186.554,22.22v1.419h0.566V22.22H186.554 M49.726,24.207
		c1.06,0.261,2.062-0.106,3.122-0.284C51.729,23.282,50.829,23.668,49.726,24.207 M180.023,28.182
		c-1.016,0.003-1.868-0.28-2.838-0.567c0.958,2.347,3.877,3.324,3.975,5.961c1.387-0.55,1.046-1.654,0.568-2.839
		c1.124-0.47,2.173-1.249,2.839-2.271c-0.751,0.026-1.271,0.233-1.985,0.425c-3.976,1.066,0.221-3.953-0.253-4.455
		C180.544,22.543,179.435,26.944,180.023,28.182 M190.527,23.923c-0.323,0.719-0.414,1.003,0.285,1.42
		C190.772,24.811,190.71,24.42,190.527,23.923 M198.192,23.923l-0.283,1.136C198.378,24.66,198.404,24.504,198.192,23.923
		 M50.15,24.917c-0.178,0.178,0.106,0.462,0.284,0.284C50.614,25.022,50.328,24.739,50.15,24.917 M152.204,27.33
		c0.135,0.832-0.229,1.169-0.852,1.703c0.615,0.135,1.076,0.093,1.704,0l-0.285,1.703c1.257-0.209,2.221-1.29,2.839-1.135
		c-0.125-1.436-0.045-2.822,0-4.258c-0.693,0.557-1.024,1.193-1.42,1.987C153.776,24.625,153.142,25.492,152.204,27.33
		 M198.902,25.484c-0.179,0.179,0.105,0.462,0.283,0.284S199.08,25.307,198.902,25.484 M200.18,25.911v0.852h0.568v-0.852H200.18
		 M190.244,26.194l-0.568,1.703c0.606-0.104,0.691-0.123,1.137,0.284c0.874-0.563,1.27-0.938,1.419-1.987
		C191.474,26.39,190.998,26.393,190.244,26.194 M159.301,26.762l0.853,0.284L159.301,26.762 M162.424,27.614
		c0.152,0.753,0.288,1.181,0.851,1.703v-1.703H162.424 M118.707,33.292c1.535-0.535,1.533-2.301,3.122-2.555
		c0.266-1.795,1.375-1.419,2.839-1.419C121.651,25.489,119.241,30.569,118.707,33.292 M196.489,28.75l0.852-0.852
		C196.737,28.153,196.745,28.146,196.489,28.75 M198.76,29.317v-1.419C197.586,28.222,197.727,28.883,198.76,29.317 M22.738,28.589
		c-0.743,0.458-0.008,1.446,0.706,0.933C24.101,29.051,23.359,28.208,22.738,28.589 M153.53,28.371
		c0.015,0.016,0.029,0.315-0.096,0.189C153.42,28.545,153.402,28.244,153.53,28.371 M180.308,28.75l-0.284,0.284L180.308,28.75
		 M165.263,29.033v0.852h0.568v-0.852H165.263 M86.63,30.736c0.826-0.324,1.094-0.592,1.419-1.419
		C87.275,29.674,86.985,29.963,86.63,30.736 M164.789,29.506c-0.015,0.016-0.031,0.315,0.096,0.189
		C164.899,29.68,164.916,29.38,164.789,29.506 M162.141,30.453c0.216,0.791,0.524,1.52,0.852,2.271
		C163.237,31.705,162.967,31.077,162.141,30.453 M192.515,31.305v0.851h0.852v-0.851H192.515 M161.005,33.859
		c0.545-0.284,0.596-0.306,0.851-0.852C161.185,33.145,161.143,33.188,161.005,33.859 M178.321,33.007
		c0.351,0.469,0.756,0.378,0,0.568c0.674,0.232,1.274,0.27,1.986,0.284C179.703,33.169,179.229,33.068,178.321,33.007
		 M160.579,34.285c-0.178,0.178,0.105,0.462,0.283,0.283C161.041,34.391,160.757,34.107,160.579,34.285 M202.024,34.853
		c-0.178,0.178,0.106,0.462,0.284,0.284C202.487,34.958,202.202,34.675,202.024,34.853 M160.815,35.468
		c-0.017,0.016-0.031,0.315,0.094,0.189C160.926,35.641,160.942,35.341,160.815,35.468 M47.737,35.562l0.853,0.284L47.737,35.562
		 M161.289,36.698c0.477,0.061,0.658,0.061,1.135,0c-0.21,0.776-0.237,1.219,0,1.987l1.137-2.271
		C162.606,36.082,162.009,35.922,161.289,36.698 M180.876,35.847v0.851l0.567-0.851H180.876 M195.638,35.847
		c0.219,0.333,0.233,0.348,0.566,0.567C196.051,35.95,196.102,36.001,195.638,35.847 M192.231,36.981
		c0.653,0.159,0.781-0.001,1.135-0.567L192.231,36.981 M158.448,36.698v0.852l-1.134-0.284
		C157.753,36.906,157.896,36.843,158.448,36.698 M155.185,37.691c-0.178,0.178,0.106,0.462,0.285,0.284
		C155.647,37.797,155.363,37.513,155.185,37.691 M194.218,38.401c-0.481,1.359-0.721,2.065-2.271,2.271
		c1.014,0.617,1.768,0.415,2.839,0c-0.497,1.364-1.341,2.162-1.419,3.69c0.605-0.921,1.321-1.937,2.271-0.852l0.284-0.851
		l0.567,0.851c0.375-1.878-0.53-3.015-1.419-4.542l1.702,0.568C196.208,37.541,195.559,38.699,194.218,38.401 M160.909,38.212
		c-0.125,0.126,0.174,0.11,0.19,0.095C161.225,38.18,160.926,38.196,160.909,38.212 M180.876,38.401v0.568h-0.853v-0.568H180.876
		 M160.153,38.969c0.387,0.421,0.56,0.465,1.136,0.568l-0.853,1.419C163.348,41.545,162.397,39.125,160.153,38.969 M181.443,39.063
		c0.253,0,0.253,0.379,0,0.379C181.191,39.442,181.191,39.063,181.443,39.063 M163.418,39.678c-0.178,0.178,0.104,0.462,0.282,0.284
		C163.88,39.785,163.596,39.5,163.418,39.678 M163.561,40.672l0.566,2.271c-0.792-0.045-1.125,0.314-1.703,0.852
		c0.471,0.115,0.636,0.087,1.137,0c-0.396,0.406-0.635,0.581-1.137,0.852c0.657,1.153,1.217,1.609,2.556,1.703
		c-0.329-0.806-0.626-1.066-1.419-1.42c0.259-0.63,0.327-1.021,0.282-1.702l0.852,0.567
		C165.01,42.437,164.939,41.276,163.561,40.672 M152.204,41.808c0.603-0.255,0.598-0.249,0.853-0.852
		C152.454,41.211,152.46,41.205,152.204,41.808 M58.526,45.214c1.472-0.518,2.009-1.555,3.121-2.554
		C59.558,41.989,58.874,43.418,58.526,45.214 M182.862,43.511l1.419-0.851C183.492,42.554,183.266,42.844,182.862,43.511
		 M188.825,42.66c-0.113,1.024-0.309,1.637-1.137,2.27c0.123-0.793,0.303-1.513,0.568-2.27H188.825 M156.747,43.605
		c0.252,0,0.252,0.379,0,0.379C156.494,43.984,156.494,43.605,156.747,43.605 M187.311,43.7c0.015,0.016,0.031,0.315-0.095,0.189
		C187.2,43.874,187.185,43.574,187.311,43.7 M43.197,45.214c0.496-0.377,0.757-0.638,1.134-1.135
		C43.54,44.256,43.375,44.422,43.197,45.214 M165.405,44.221c-0.179,0.178,0.105,0.462,0.283,0.284S165.583,44.043,165.405,44.221
		 M97.7,45.214c0.618-0.21,0.772-0.312,1.135-0.852C98.217,44.572,98.063,44.676,97.7,45.214 M47.455,46.35
		c0.703-0.517,1.089-0.896,1.419-1.703C47.979,45.052,47.684,45.394,47.455,46.35 M158.448,45.025c0.221,0,0.047,0.141-0.092,0.094
		L158.448,45.025 M166.682,44.93l0.568,0.852L166.682,44.93 M78.254,45.641c-0.178,0.178,0.107,0.462,0.285,0.283
		C78.717,45.746,78.433,45.462,78.254,45.641 M157.029,45.498c0.28,0.419,0.285,0.341,0.285,0.852
		C156.812,46.072,156.759,46.003,157.029,45.498 M43.197,45.781c0.302,0.54,0.725,0.945,1.134,1.42l0.568-1.42H43.197
		 M196.489,46.917c-0.538-0.362-0.642-0.518-0.852-1.136C196.403,45.946,196.43,46.14,196.489,46.917 M10.929,46.255
		c-0.016,0.016-0.03,0.315,0.095,0.189C11.04,46.429,11.056,46.129,10.929,46.255 M32.693,46.917l1.134-0.567
		C33.145,45.965,32.854,46.165,32.693,46.917 M49.442,47.485c0.886-0.13,1.284-0.336,1.702-1.136
		C50.198,46.449,49.795,46.584,49.442,47.485 M104.513,47.485c0.833-0.178,1.14-0.326,1.419-1.136
		C105.117,46.526,104.888,46.74,104.513,47.485 M163.843,46.634c0.097,0.677,0.218,1.118,0.568,1.703
		C164.409,47.631,164.231,47.223,163.843,46.634 M59.66,46.917c0.836,0.524,1.58,0.556,2.556,0.568v-0.568H59.66 M156.463,46.917
		c-0.115,0.595-0.062,0.573-0.567,0.853L156.463,46.917 M191.663,47.201l0.283,0.284c-0.306,0.602-0.533,0.828-1.134,1.136
		l0.283-1.42H191.663 M196.489,47.201c0.411,0.691,0.357,0.936-0.285,1.42C196.244,48.089,196.307,47.698,196.489,47.201
		 M104.513,48.053C100.549,47.093,101.93,51.693,104.513,48.053 M153.908,48.432c0.219,0,0.045,0.141-0.096,0.095L153.908,48.432
		 M168.385,48.716c0.252,0,0.252,0.378,0,0.378C168.134,49.094,168.134,48.716,168.385,48.716 M72.72,49.756l0.851-0.567
		C72.978,49.304,72.997,49.25,72.72,49.756 M154.19,49.188c0.163,0.875-0.148,1.195-0.851,1.703
		C153.462,50.202,153.732,49.709,154.19,49.188 M170.657,50.04c-0.595-0.115-0.573-0.062-0.853-0.568L170.657,50.04 M168.953,49.851
		c0.252,0,0.252,0.379,0,0.379C168.7,50.229,168.7,49.851,168.953,49.851 M171.508,50.418c0.221,0,0.045,0.142-0.095,0.096
		L171.508,50.418 M38.087,50.607c0.209,1.222,0.469,1.904,1.703,2.271C39.433,51.885,39.116,50.982,38.087,50.607 M44.048,50.607
		c0.546,1.245,1.611,1.438,1.987,0C45.337,50.689,44.745,50.694,44.048,50.607 M95.146,50.607
		C91.684,51.252,94.52,53.587,95.146,50.607 M182.579,51.176l-0.851,0.567l1.419,0.568C182.987,51.813,182.886,51.59,182.579,51.176
		 M153.34,51.743v0.568h-0.852v-0.568H153.34 M183.715,52.595l1.419-0.567C184.396,51.834,184.154,51.984,183.715,52.595
		 M168.953,52.122c0.22,0,0.045,0.141-0.094,0.095L168.953,52.122 M151.921,52.595l0.567,1.703
		C151.262,54.097,150.301,53.16,151.921,52.595 M164.979,52.879c0.2,1.075,0.106,1.817-0.285,2.839c1.446,0.211,3.034-0.478,4.259,0
		c-0.161-0.589-0.188-1.809-0.853-1.42l-0.282-0.284c0.64-0.739,0.993-0.223,1.135,0.568c1.924-1.624,2.92-1.046,1.704,1.42
		c4.846-1.349,2.473-2.499,2.554,1.986c-1.005,0.062-1.653-0.124-2.554-0.567c1.487,2.189,1.152,4.88-1.704,2.839
		c0.16,0.973,0.367,1.853,0.284,2.838l-1.419-1.135c0.455,1.818,1.581,3.241,0.851,5.109c-0.909-1.516-3.797-5.896-0.568-5.677
		l-1.702-5.11c-0.5,1.515,1.065,3.646-1.136,3.975c0.815-2.293-0.068-3.574-1.702-5.11c0.397-0.383,0.617-0.64,0.851-1.136
		c-0.4,0.063-0.468,0.072-0.851,0C163.918,53.393,164.312,53.149,164.979,52.879 M35.059,53.636
		c-0.016,0.016-0.032,0.315,0.095,0.189C35.169,53.81,35.185,53.51,35.059,53.636 M35.532,54.866
		C37.498,54.31,36.188,53.079,35.532,54.866 M154.477,54.014l-0.853-0.567C154.219,53.562,154.197,53.508,154.477,54.014
		 M157.882,54.866c-1.01-0.149-1.284-0.391-1.135-1.42C157.447,53.81,157.67,54.105,157.882,54.866 M166.398,53.446v0.852h-0.567
		v-0.852H166.398 M109.907,58.272c2.248-0.252,5.918,2.062,6.813-1.703c-1.652,0.644-2.403,0.45-3.976-0.284l3.123-1.419v-0.568
		C113.603,53.872,110.455,56.082,109.907,58.272 M107.637,54.298c0.388,1.062,0.882,1.473,1.987,1.704
		C109.327,54.874,108.722,54.603,107.637,54.298 M148.096,54.536c0.961-0.503,2.628,0.562,1.374,1.39
		C148.458,56.594,146.871,55.178,148.096,54.536 M162.141,54.582c-0.648,0.479-1.193,0.707-1.987,0.852
		c0.156,0.587,0.24,1.098,0.283,1.703C159.395,55.569,160.575,54.752,162.141,54.582 M92.022,56.569l0.853-0.567
		C92.28,56.116,92.302,56.062,92.022,56.569 M153.624,56.002l-0.284,0.283L153.624,56.002 M69.03,63.382
		c0.3-2.2,4.123-5.342,5.96-6.528C71.328,55.318,64.787,60.271,69.03,63.382 M168.291,56.38c-0.127,0.126,0.173,0.11,0.188,0.095
		C168.606,56.349,168.307,56.364,168.291,56.38 M78.112,57.421l0.853-0.284C78.459,56.866,78.391,56.92,78.112,57.421
		 M157.598,57.137c0.738,0.142,0.986,0.244,1.419,0.852l-1.702-0.567L157.598,57.137 M161.855,57.137
		c1.092,0.306,2.016,0.128,3.124,0l-0.285,1.136l-0.852-0.568c0.133,1.17-1.597,0.756-2.554,0.852L161.855,57.137 M151.353,57.516
		c0.253,0,0.253,0.378,0,0.378C151.101,57.894,151.101,57.516,151.353,57.516 M157.1,58.076c0.601-0.121,0.766,1.003,0.148,1.11
		C156.594,59.3,156.513,58.195,157.1,58.076 M103.093,58.556c0.568,1.055,1.185,2.016,2.272,2.556
		c0.212-0.674,0.451-1.117,0.852-1.703C105.221,58.216,104.565,58.12,103.093,58.556 M150.218,58.272l-0.567,0.852
		C149.332,58.517,149.577,58.406,150.218,58.272 M95.997,59.408c0.943-0.037,1.713-0.132,2.556-0.568
		C97.526,58.546,96.706,58.57,95.997,59.408 M161.005,58.84c1.304,2.544,1.059,3.226-1.704,1.987
		c0.618-0.276,1.024-0.314,1.704-0.283C160.912,59.917,160.869,59.455,161.005,58.84 M164.979,58.935c0.252,0,0.252,0.379,0,0.379
		C164.727,59.313,164.727,58.935,164.979,58.935 M150.501,59.124c-0.155,0.464-0.104,0.413-0.568,0.567
		C150.153,59.357,150.168,59.344,150.501,59.124 M163.561,60.26l-0.853-0.568L163.561,60.26 M106.406,60.07
		c-0.126,0.127,0.174,0.11,0.188,0.095C106.722,60.038,106.421,60.055,106.406,60.07 M166.113,61.111
		c-0.828,0.824-1.72,1.358-2.839,1.703C163.573,61.045,164.454,60.745,166.113,61.111 M115.302,61.396l0.851-0.568
		C115.56,60.942,115.579,60.889,115.302,61.396 M41.777,61.963c0.546-0.284,0.596-0.306,0.852-0.852
		C41.958,61.248,41.913,61.291,41.777,61.963 M129.399,61.584c0.016,0.016,0.032,0.315-0.096,0.189
		C129.289,61.758,129.274,61.458,129.399,61.584 M94.577,61.963v0.852h0.568v-0.852H94.577 M100.255,62.246
		c0.801,1.036,1.594,1.138,2.838,0.852c-0.411-0.429-0.513-0.542-0.566-1.135L100.255,62.246 M151.353,61.963v1.135h-0.567v-1.135
		H151.353 M183.715,63.098l0.853-0.567c-0.656-0.176-1.312-0.213-1.988-0.284c0.021,0.555,0.101,0.552-0.283,0.852
		c0.426,0.194,0.656,0.235,1.135,0.284c-0.368,0.453-0.436,0.573-0.568,1.136c1.283,0.031,2.438,0.603,3.691,0.852l-0.567,0.852
		c2.431-0.241,5.165-1.678,5.96-4.258C188.605,62.001,187.501,64.527,183.715,63.098 M158.166,62.246
		c0.338,1.169,0.274,2.188-0.852,2.84l0.283-2.84H158.166 M120.128,62.53v1.136h-0.853V62.53H120.128 M133.185,62.53l-0.567,0.852
		L133.185,62.53 M155.327,62.53v0.567h-1.137V62.53H155.327 M162.708,62.53c-0.219,0.334-0.234,0.348-0.567,0.567
		C162.295,62.635,162.243,62.685,162.708,62.53 M123.817,62.814C121.792,68.05,117.353,64.868,123.817,62.814 M77.828,63.098
		c-0.178,1.082-0.285,1.791,0.568,2.556l0.284-2.556H77.828 M164.316,63.288c0.015,0.016,0.032,0.315-0.096,0.188
		C164.206,63.461,164.191,63.161,164.316,63.288 M96.848,63.666c0.212,0.618,0.314,0.773,0.853,1.136
		C97.49,64.184,97.388,64.028,96.848,63.666 M133.185,64.518c-0.278,0.506-0.259,0.452-0.852,0.568L133.185,64.518 M104.798,65.653
		l1.702-0.284C105.729,65.013,105.389,65.039,104.798,65.653 M161.005,64.802c1.576,0.829,0.367,2.285,0.568,3.689
		c-0.518-0.147-0.941-0.321-1.42-0.567l0.568,3.691l-1.137-0.285l0.568-1.702c-1.917,0.637-1.743,2.129-3.69,0.282
		c1.453-1.196,2.026-4.293,4.259-3.405c-0.123-0.547,0.263-1.134,0-1.419L161.005,64.802 M155.61,65.653
		c-0.372,0.395-0.651,0.605-1.134,0.852C154.626,65.68,154.776,65.566,155.61,65.653 M74.707,66.789
		c1.124,0.223,1.915-0.232,2.839-0.852C76.413,65.652,75.646,66.173,74.707,66.789 M125.52,68.491c-4.305,1.307-1.318-4-0.15-2.31
		C125.911,66.967,124.649,67.635,125.52,68.491 M130.062,65.938l-0.853,0.283L130.062,65.938 M91.739,66.221l0.851,0.284
		L91.739,66.221 M19.635,68.208c0.735-0.49,0.94-0.841,1.136-1.703C19.756,66.741,19.687,67.215,19.635,68.208 M153.908,67.64
		c-1.307,0.338-0.016,2.944,0.282,3.976c0.666-0.155,0.809-0.063,1.42,0.283l0.285-1.136c0.658,0.933,0.639,1.724,0.567,2.839
		l-1.136-1.419c0.283,3.335,1.327,4.738-1.137,7.38c-0.881-0.76-1.698-0.835-2.838-0.851c0.548-1.834,1.93-1.474,3.406-0.852
		c0.173-0.82,0.296-1.046,1.137-1.136c-0.533-0.687-0.836-0.821-1.705-0.852c0.229-1.872-0.067-6.08-2.27-2.271l1.136-0.284
		l-0.285,2.556c-1.001-0.466-1.244-0.661-2.271,0c-0.085-0.69-0.067-1.294,0-1.987c0.36,0.438,0.423,0.58,0.568,1.135
		c0.253-2.37,0.919-3.25,1.987-5.393l-1.419,0.282C152.278,68.839,152.075,65.294,153.908,67.64 M129.399,66.978
		c0.016,0.017,0.032,0.315-0.096,0.189C129.289,67.152,129.274,66.852,129.399,66.978 M135.172,66.789v0.568h-0.852v-0.568H135.172
		 M148.514,74.736c0.599-0.295,1.049-0.453,1.704-0.566c-1.584,2.076-4.064,1.595-5.962,0.284c0.497-0.183,0.889-0.246,1.419-0.284
		c-1.608-3.083-0.169-3.32-0.283-5.962C151.295,67.51,150.664,69.666,148.514,74.736 M166.682,67.072
		c-0.255,0.603-0.248,0.597-0.851,0.852L166.682,67.072 M101.013,67.451c-0.127,0.126,0.173,0.11,0.188,0.094
		C101.328,67.42,101.028,67.435,101.013,67.451 M157.882,67.357l-0.284,0.282L157.882,67.357 M164.694,67.357
		c3.372,3.121,2.19,1.084,5.11,0.282c-0.359,1.66-1.636,2.826-1.901,4.278c-0.324,1.777,2.372,7.327-1.204,7.191
		c-1.93-0.072-1.938-3.136-0.018-3.236c-0.363-1.217-0.463-1.795-1.135-2.839l0.284-0.285c0.154,0.466,0.103,0.414,0.567,0.568
		c-0.047-1.459,0.013-3.036-0.852-4.258c0,2.415-3.234,3.777-3.406,5.11c-0.603-0.958-0.703-1.724-0.567-2.84
		c0.977,0.275,1.016,0.746,0.851,1.704c0.987-0.986,1.103-2.393,2.556-2.838l-0.853-0.568L164.694,67.357 M135.74,68.776
		c-0.826,0.623-1.528,0.791-2.556,0.852V69.06L135.74,68.776 M35.855,69.91c-1.963,0.313-4.554,3.55-1.192,3.175
		C36.245,72.909,38.004,69.569,35.855,69.91 M90.319,70.479c0.661-0.195,0.984-0.325,1.42-0.851
		C91.002,69.768,90.753,69.87,90.319,70.479 M140.566,69.628c-0.06,0.681-0.06,1.307,0,1.987
		C136.8,71.579,137.168,70.116,140.566,69.628 M92.59,71.615c1.433-0.074,2.16-0.416,2.839-1.705
		C94.18,70.186,93.133,70.371,92.59,71.615 M119.842,72.466c0.221-0.334,0.235-0.348,0.568-0.567
		C113.987,71.165,126.828,69.788,119.842,72.466 M95.429,71.898c0.826-0.256,1.413-0.486,1.987-1.136
		C96.262,70.544,95.729,70.727,95.429,71.898 M130.062,71.425c0.252,0,0.252,0.379,0,0.379
		C129.81,71.804,129.81,71.425,130.062,71.425 M145.865,71.425c-0.128,0.127,0.173,0.11,0.188,0.096
		C146.181,71.394,145.88,71.41,145.865,71.425 M165.547,71.33v0.853C165.349,71.74,165.349,71.771,165.547,71.33 M123.533,71.615
		v0.567h-1.704v-0.567H123.533 M134.889,71.709c0.219,0,0.045,0.142-0.095,0.095L134.889,71.709 M143.404,71.709
		c0.253,0,0.253,0.379,0,0.379S143.151,71.709,143.404,71.709 M52.563,75.305C56.864,73.522,52.642,70.086,52.563,75.305
		 M159.017,71.898l-0.851,0.567C158.443,71.961,158.424,72.013,159.017,71.898 M50.482,72.276c-0.126,0.127,0.174,0.111,0.189,0.095
		C50.798,72.246,50.499,72.261,50.482,72.276 M96.848,74.17c0.927-0.262,1.294-0.549,1.705-1.421
		C97.685,73.068,97.321,73.375,96.848,74.17 M180.592,72.749c0.276,1.66,1.967,5.422,3.689,5.679
		c-0.331-1.591,0.062-3.354-1.702-3.974l0.568-0.853C182.261,73.303,181.533,72.869,180.592,72.749 M113.313,73.128
		c0.253,0,0.253,0.38,0,0.38S113.061,73.128,113.313,73.128 M160.153,77.292c-0.077-1.12-0.168-2.298,0-3.406l-1.137-0.284
		l-0.282,1.703C157.188,71.841,163.518,74.056,160.153,77.292 M45.468,73.602c0.387,0.422,0.561,0.464,1.135,0.568
		c-0.574,0.85-0.97,1.535-1.135,2.555c2.178-0.126,3.481-0.669,4.258-2.839L45.468,73.602 M170.373,74.17
		c-0.595-0.116-0.573-0.062-0.853-0.568L170.373,74.17 M56.539,73.886l-1.137,2.271c1.044-0.506,1.364-1.185,1.703-2.271H56.539
		 M132.901,73.886v0.568h1.135v-0.568H132.901 M119.275,75.021l1.135-0.566C119.755,74.295,119.628,74.454,119.275,75.021
		 M146.243,74.17c0.468,0.579,0.676,0.614,1.419,0.566C147.184,74.469,146.773,74.316,146.243,74.17 M105.365,74.454
		c-0.279,0.419-0.284,0.34-0.284,0.851C105.446,74.895,105.479,74.954,105.365,74.454 M156.179,74.548c0.252,0,0.252,0.379,0,0.379
		C155.926,74.927,155.926,74.548,156.179,74.548 M20.628,75.162c-0.178,0.179,0.105,0.463,0.284,0.285
		C21.09,75.269,20.806,74.984,20.628,75.162 M130.346,75.873h2.556C132.066,74.939,131.249,75.104,130.346,75.873 M21.764,75.447
		c-0.178,0.178,0.106,0.461,0.284,0.283S21.942,75.269,21.764,75.447 M118.423,75.873l0.853-0.568
		C118.681,75.42,118.702,75.366,118.423,75.873 M32.268,75.73c-0.179,0.178,0.105,0.463,0.283,0.284
		C32.729,75.837,32.445,75.553,32.268,75.73 M121.262,77.86c0.733-0.357,1.384-0.957,1.704-1.704
		C121.924,76.42,121.582,76.845,121.262,77.86 M170.373,78.712c-0.497-0.821-0.868-1.635-1.136-2.556
		C170.753,76.381,170.807,77.398,170.373,78.712 M97.23,76.854c-1.204,0.586-0.162,1.774,0.884,1.231
		C99.088,77.58,98.068,76.445,97.23,76.854 M168.101,77.292c-0.132-0.402-0.229-0.516-0.567-0.851
		C166.995,77.09,167.366,77.198,168.101,77.292 M53.605,76.819c-0.127,0.125,0.173,0.11,0.188,0.095
		C53.921,76.787,53.62,76.803,53.605,76.819 M123.533,77.575c0.547-0.283,0.596-0.306,0.853-0.851
		C123.782,76.979,123.788,76.974,123.533,77.575 M55.971,81.833c0.333-0.218,0.348-0.232,0.568-0.566
		c0.405,1.982-3.907,5.831-1.137,6.245l-0.851-1.419c2.191-0.002,4.218-1.488,6.528-1.704c-1.922-3.326-4.186-1.505-1.42-5.961
		c-0.913-0.252-0.863-0.559-0.566-1.419C56.637,77.758,56.51,79.61,55.971,81.833 M124.386,79.562
		c1.074-0.28,1.872-1.144,2.838-1.702C125.795,77.436,124.876,78.255,124.386,79.562 M163.274,77.954c0.253,0,0.253,0.38,0,0.38
		C163.023,78.334,163.023,77.954,163.274,77.954 M166.966,77.86v0.567h1.135V77.86H166.966 M83.223,78.712
		c0.771,0.165,1.486,0.067,2.271,0v-0.568C84.627,78.193,84.008,78.339,83.223,78.712 M108.487,78.994h1.988
		C109.727,78.334,109.179,78.224,108.487,78.994 M121.356,78.334c-0.015,0.015-0.031,0.315,0.095,0.188
		C121.467,78.507,121.483,78.206,121.356,78.334 M142.554,79.562C144.859,80.253,144.148,77.194,142.554,79.562 M100.54,78.428
		l-0.568,1.135C100.5,79.204,100.644,79.059,100.54,78.428 M45.75,78.712C43.3,79.436,45.385,81.455,45.75,78.712 M170.939,78.994
		l-0.566,1.137l1.419-1.137c0.102,1.035-0.551,1.865-0.853,2.839c-3.444-1.143-3.782,5.169-7.379,5.395
		c0.546,0.691,0.598,1.115,0.566,1.987l1.136-0.568c-0.19,0.955-0.263,1.914-0.568,2.839c0.702-0.33,1.214-0.558,1.987-0.568
		c0.04-1.259,0.16-2.088,1.419-2.553c0,0.961-1.193,2.568,0,2.271c-0.205,1.317-0.633,2.225-1.987,2.554l0.285-1.703
		c-2.575,2.475-1.529,8.32-4.543,10.788l0.285-0.853c-0.735,0.774-1.009,1.752-1.704,2.556c2.61-0.132,2.32-2.487,4.258-3.689
		l-0.283,1.134c0.956-0.941,1.803-1.657,3.122-1.986c-0.456,0.437-0.894,0.782-1.42,1.135c0.521-0.037,0.923-0.125,1.42-0.282
		c-0.051,2.735,0.73,7.056-3.122,7.947c0.013,1.609-1.377,3.507-2.271,4.826l-0.852-0.568v1.419
		c-0.739-0.801-0.272-2.616,0.852-2.838c-0.36-1.031-0.686-2.043-0.852-3.122c-0.52,0.861-0.891,1.669-1.704,2.271
		c0.329,0.924,0.429,1.87,0.568,2.839c-2.914-0.443-5.639,7.178-6.813,9.367c-0.32-1.061,0.008-1.604,0.851-2.271
		c-1.184,0.051-2.382,1.824-1.134,2.556c-0.644,0.623-1.124,1.154-1.987,1.419l0.568-0.853c-4.687,2.45-7.102,8.221-12.775,8.232
		v0.568l1.42-0.283c-0.645,0.858-4.673,1.741-3.691,1.986l-3.406,1.135l1.419-1.702c-1.72,0.397,6.143-7.096,6.813-8.232
		c-3.126,1.566-5.637,5.154-8.8,6.245c1.506-2.268,3.539-3.289,5.393-5.11c-0.854,0.417-1.611,0.712-2.554,0.853
		c0.472-0.479,2.96-2.582,2.554-0.853c2.322-1.333,4.415-2.912,6.53-4.542c-0.876-0.588-0.667-0.999-0.567-1.987
		c-0.543,0.378-0.663,0.51-0.853,1.137c-1.648,0.213-2.457,0.851-2.554,2.554c-0.429-0.354-0.594-0.632-0.852-1.135
		c-0.281,0.856-0.693,3.409-1.987,2.271c-0.453,0.368-0.573,0.436-1.137,0.568c0.559-2.203,3.754-4.551,5.11-6.528
		c-0.479,0.245-0.902,0.418-1.419,0.566c0.699-0.989,1.035-1.616,0.852-2.838c2.699-1.016,3.464-3.634,6.244-4.542
		c-0.109,2.122-1.225,2.897-3.122,3.689c1.004,0.232,1.772-0.018,1.987,1.137l-1.137-0.568c0.084,0.855,0.297,1.423,1.137,0.851
		c0.094,1.311-0.87,1.853-1.987,2.271c2.051,0.271,3.387-1.104,4.258-2.838l-0.852,0.852c-0.135-1.807,2.459-3.429,3.123-5.111
		c-1.107,0.724-1.786,1.805-2.84,2.556c0.463-1.279,1.216-2.298,1.987-3.406c-1.709-1.66,2.066-4.246,3.124-5.394l-1.419,0.284
		c0.146-0.701,2.309-4.565,0.851-3.69c-0.237-1.118,1.942-8.21,2.839-8.517l-0.284,1.42c0.875-0.412,1.59-0.54,2.555-0.568
		c-0.938-0.827-1.654-1.812-2.839-2.271l0.568-3.406l0.852,0.567c0.391-1.643,1.398-1.989,0.568-3.689
		c1.185-0.506,0.945-1.42,1.135-2.556c0.56,0.473,0.69,0.878,1.419,0.567v0.853c1.418-1.375,2.853-1.902,4.542-2.84
		c-0.631,0.017-1.096,0.104-1.702,0.285c0.261-1.562,1.037-2.207,2.554-2.556c-0.219,0.333-0.232,0.349-0.567,0.568
		c0.612-0.129,0.873-0.246,1.42-0.568c0.115,0.471,0.087,0.636,0,1.137l3.406-1.419l-0.568,1.134
		C169.225,79.891,170.03,79.385,170.939,78.994 M158.321,79.53c1.014-0.511,1.279,0.903,0.371,1.302
		C157.787,81.228,157.589,79.899,158.321,79.53 M37.52,80.131C34.716,79.348,35.725,82.023,37.52,80.131 M161.005,79.658
		c0.22,0,0.045,0.14-0.096,0.095L161.005,79.658 M80.101,80.414c0.631,0.104,0.777-0.039,1.135-0.567L80.101,80.414 M93.442,80.414
		c0.821,0.093,1.15,0.053,1.703-0.567C94.469,79.943,94.026,80.065,93.442,80.414 M100.54,80.699h1.986
		C101.824,79.926,101.238,79.912,100.54,80.699 M99.972,81.267C98.715,79.743,97.363,81.778,99.972,81.267 M137.442,80.414
		c0.498,0.183,0.889,0.245,1.42,0.285C138.365,80.517,137.976,80.454,137.442,80.414 M146.812,80.414
		c0.155,0.809,0.485,1.254-0.285,1.704l1.136,0.567c-1.464,2.841-1.713,1.534-2.556-1.986l-1.702,0.567
		c0.746,0.656,1.087,0.975,0.852,1.986c0.57,0.35,0.788,0.565,1.136,1.136c-1.814-0.991-2.055-2.983-4.258-3.122
		c1.545,2.211-1.731,4.213-1.136,4.826c-1.655,0.049-3.608-0.26-3.407,1.986c-0.748-0.046-0.937-0.003-1.419,0.567
		c2.556,0.04,3.222,1.746,3.975,3.976c0.962-0.358,2.438-0.766,1.987-1.987c1.068-0.229,0.951-1.3,1.135-2.271
		c-0.661-0.08-0.665-0.203-0.852-0.853c7.469,1.379-2.661-1.791,2.839-3.407l-0.283,1.704c1.665-0.271,3.529,0.304,5.109,0.851
		c-1.044,0.543-1.704,0.578-2.839,0.285c-0.261,1.048-0.633,1.323-1.703,1.42c-0.399,1.033-1.349,1.399-1.986,2.271
		c0.626-0.133,1.119-0.302,1.702-0.568c0.343,2.831,3.593-1.127,1.136-0.283c0.471-0.655,0.874-1.222,1.135-1.987
		c2.188,0.319,4.197-0.979,6.53-0.852c-1.451-0.932-2.986-1.055-4.543-1.704c1.574-0.522,3.143-1.511,3.69-3.122
		c-0.538,0.362-0.642,0.518-0.852,1.135l-1.42-0.567c-0.271,0.75-0.7,1.32-1.135,1.987c-0.329-1.266,0.062-2.165,0.284-3.406
		l-1.137,0.566C147.735,81.073,147.513,80.778,146.812,80.414 M32.408,81.267c0.466-0.154,0.413-0.104,0.568-0.567
		C32.644,80.918,32.628,80.932,32.408,81.267 M161.573,80.699c-0.406,1.895-1.948,2.245-3.691,1.986
		C158.942,81.813,160.326,81.277,161.573,80.699 M44.899,81.833c0.671-0.135,0.716-0.18,0.851-0.851
		C45.204,81.237,45.185,81.287,44.899,81.833 M58.241,82.401l2.839,0.568C60.82,81.167,59.085,80.649,58.241,82.401 M97.416,80.982
		C94.35,81.325,96.372,83.303,97.416,80.982 M103.093,81.833c-1.949-0.799-3.158,0.644-4.824,1.42v-1.42
		c-1.118,0.967-1.561,1.643-3.123,1.137c-1.664,1.832-2.874,0.286-4.826-0.284c0.151,4.297,1.717,2.534-2.271,1.703
		c1.707,3.541-9.68-1.654-5.677,2.839c-0.671,0.144-6.078,6.262-6.246,1.137h-1.704c0.119-0.756-0.28-2.098-0.852-0.853l0.568-0.284
		v0.568h-1.987c-0.101,1.017-0.666,1.668-1.135,2.555l2.271,0.284c-1.19,1.229-2.104,2.851-3.976,2.271
		c0.354,1.005,0.974,1.08,1.987,1.136v0.567c-0.749,0.079-1.309,0.239-1.987,0.568c0.743,0.787,1.124,1.465,2.271,1.419
		c0.471,2.521-1.352,2.434-0.283,5.11c0.461-0.696,0.776-2.463,1.702-1.419c0.296-1.462-0.372-2.76-1.134-3.976
		c2.653,0.288,1.931-2.1,1.134-3.689c1.455-0.058,2.792,0.41,4.26,0.283l-0.568-0.852c1.916-0.008,5.416-0.01,6.6-1.797
		c0.788-1.187-0.96-2.566,1.065-3.385c1.269-0.512,2.284,1.524,3.406,1.492c-0.62,0.779-2.755,1.146-2.777,2.262
		c-0.031,1.578,3.146,0.206,3.345-1.128c1.97,0.781,3.512,1.69,5.677,1.704c-1.032,0.691-2.145,1.212-3.121,1.986
		c0.926,0.113,1.688-0.25,2.555-0.566c-0.231,0.884-0.649,1.507-1.136,2.271c1.522-0.05,2.554-1.482,3.975-1.987
		c-0.402-0.749-2.67-5.188-0.853-2.555c2.346-1.073,2.658-0.754,2.271,1.703c1.248-0.721,1.533-2.099,3.05-2.686
		c2.714-1.052,4.993,0.125,7.737-0.438l-1.136,1.986c1.965-0.438,3.308-1.597,5.111-2.271l-1.137-1.135l1.137,0.567
		c0.143-0.734,0.133-1.25,0-1.986h-1.705c0.018,0.494-0.135,0.674-0.282,1.135c-0.964-0.378-1.375-0.169-2.272,0.284
		c0.595-1.313,1.016-2.074,0.284-3.407l1.137-0.284c-0.246-0.61-0.513-1.138-0.853-1.702l-0.853,0.852
		c-0.896-1.194-2.01-1.585-3.406-1.987l0.568,1.136C104.3,81.796,103.398,80.438,103.093,81.833 M34.254,81.407
		c-0.179,0.178,0.106,0.464,0.284,0.286C34.716,81.514,34.432,81.229,34.254,81.407 M68.887,81.407
		c-0.178,0.178,0.105,0.464,0.283,0.286C69.349,81.514,69.064,81.229,68.887,81.407 M152.63,81.407
		c-0.179,0.18,0.106,0.464,0.284,0.286C153.092,81.514,152.81,81.229,152.63,81.407 M48.306,83.82
		c1.083-0.301,1.236-0.929,1.42-1.987C48.906,82.375,48.629,82.899,48.306,83.82 M157.598,81.833
		c-0.103,0.576-0.146,0.749-0.568,1.137C157.175,82.415,157.238,82.271,157.598,81.833 M163.843,84.389l2.271-2.556
		C164.734,82.178,164.184,83.05,163.843,84.389 M165.547,84.104c0.224,0.5,0.272,0.439,0,0.853l0.284,0.283
		c0.92-0.858,1.126-2.168,1.987-3.122C166.616,82.062,166.389,83.438,165.547,84.104 M46.225,82.212
		c-0.127,0.127,0.174,0.11,0.188,0.096C46.54,82.181,46.241,82.196,46.225,82.212 M71.017,82.118v0.567h0.852v-0.567H71.017
		 M130.914,82.118v0.852C131.111,82.529,131.111,82.56,130.914,82.118 M138.862,82.118l-0.284,1.42h1.988
		c-0.495-0.454-0.816-0.831-1.137-1.42H138.862 M124.1,82.401v0.568h0.853v-0.568H124.1 M171.508,82.401
		c-0.639,2.027-2.724,4.399-4.826,4.826c0.228-1.372,0.889-2.428,1.419-3.689c0.518,0.147,0.941,0.321,1.42,0.566
		C169.849,82.874,170.229,82.496,171.508,82.401 M27.015,82.97c0.117,0.593,0.062,0.573,0.568,0.851L27.015,82.97 M83.791,82.97
		c0.791,1.156,1.8,1.128,3.122,1.135v-0.566C85.839,83.463,84.836,83.218,83.791,82.97 M106.217,83.538
		c-0.165,0.766-0.357,0.791-1.136,0.851C105.461,84.027,105.764,83.81,106.217,83.538 M32.125,83.82l0.852,0.284L32.125,83.82
		 M45.324,83.964c-0.178,0.178,0.106,0.461,0.286,0.282C45.788,84.068,45.502,83.786,45.324,83.964 M75.274,85.524
		c1.503,1.951,3.82,0.604,5.678-0.284C78.297,82.915,77.748,84.902,75.274,85.524 M151.495,84.531
		c-0.178,0.178,0.104,0.461,0.282,0.283C151.957,84.637,151.673,84.353,151.495,84.531 M171.508,84.673
		c-0.263,0.712-0.513,0.976-1.135,1.42l0.566-1.42H171.508 M104.798,84.957c-0.631,1.522-1.504,2.434-3.124,2.839
		c0.316-1.454,1.217-1.67,2.271-2.556l-0.853,0.284C103.637,85.035,104.067,85.001,104.798,84.957 M173.778,85.24
		c-0.256,0.76-0.448,1.009-1.134,1.419C172.902,85.921,173.121,85.669,173.778,85.24 M179.741,85.24
		c0.182,0.498,0.242,0.889,0.282,1.419h-0.566C179.495,86.129,179.559,85.738,179.741,85.24 M51.145,88.364
		C46.421,83.923,44.874,87.903,51.145,88.364 M99.025,85.713c0.016,0.017,0.031,0.315-0.095,0.19
		C98.915,85.887,98.897,85.588,99.025,85.713 M178.604,85.524c-0.219,0.334-0.234,0.349-0.568,0.568
		C178.191,85.628,178.142,85.68,178.604,85.524 M10.834,85.809v0.567h0.853v-0.567H10.834 M119.56,85.809l0.851,0.284L119.56,85.809
		 M138.578,86.471c0.221,0,0.045,0.141-0.095,0.095L138.578,86.471 M177.186,86.471c0.252,0,0.252,0.379,0,0.379
		C176.933,86.85,176.933,86.471,177.186,86.471 M182.296,86.376l-0.853,0.568L182.296,86.376 M122.113,86.659
		c0.435,0.525,0.76,0.656,1.42,0.853C123.097,86.944,122.813,86.827,122.113,86.659 M55.687,86.944v1.986
		c0.537-0.553,1.048-1.029,1.419-1.703C56.574,87.192,56.188,87.122,55.687,86.944 M137.442,87.038c0.252,0,0.252,0.38,0,0.38
		S137.19,87.038,137.442,87.038 M139.146,87.038c0.252,0,0.252,0.38,0,0.38C138.894,87.418,138.894,87.038,139.146,87.038
		 M108.203,88.079c-0.825,0.292-1.698,0.38-2.554,0.567l-0.284-1.419C106.348,87.44,107.271,87.7,108.203,88.079 M171.508,87.228
		c-0.232,0.576-0.355,0.773-0.851,1.137C170.869,87.769,170.998,87.603,171.508,87.228 M180.023,87.228
		c-0.422,0.623-0.801,0.988-1.419,1.419C178.868,87.752,179.117,87.463,180.023,87.228 M143.973,87.512l-0.853,0.567L143.973,87.512
		 M166.113,87.512c0.28,0.419,0.285,0.342,0.285,0.853C165.897,88.086,165.843,88.016,166.113,87.512 M169.805,87.512
		c-0.203,0.888-0.421,1.415-1.136,1.986l0.568-1.986H169.805 M178.321,87.512c-0.155,0.464-0.104,0.413-0.568,0.567
		C177.974,87.746,177.987,87.73,178.321,87.512 M132.901,87.796c-0.061,0.777-0.087,0.971-0.852,1.135
		C132.262,88.337,132.392,88.171,132.901,87.796 M149.366,87.796c0.21,0.618,0.312,0.773,0.852,1.135v-1.135H149.366
		 M150.501,88.364l0.852-0.568L150.501,88.364 M180.876,88.364c-0.262,2.165-2.339,3.566-3.406,5.393l1.135-0.284l-1.135,2.555
		l-0.284-0.851c-0.469,0.77-0.716,1.38-0.852,2.271h-0.568c0.265-1.534,0.752-3.034,1.137-4.543
		c-1.044,1.366-1.25,3.195-1.705,4.826c-0.181-0.497-0.242-0.888-0.282-1.42c-0.536,1.236-1.777,3.564-1.704,4.826
		c-1.678,1.361-3.158,2.679-4.258,4.542c-0.709-1.846,1.858-7.501,3.406-8.517c-0.985,0.242-1.283,0.721-1.42,1.704
		c-0.483-0.248-0.762-0.458-1.135-0.853l0.853-1.135l-1.137,0.852c-0.05-0.948,0.57-1.102,1.419-1.136
		c-0.361-1.688-0.282-3.393-0.282-5.11c0.505,0.278,0.451,0.258,0.567,0.852l1.42-0.567c-0.595,1.092-0.964,1.861-0.853,3.123
		l1.135-0.568l-1.702,1.987c1.919-0.999,2.915-2.306,4.259-3.975l-1.42,0.285c0.323-1.007,0.986-0.884,1.702-1.42
		C176.977,92.039,179.015,88.677,180.876,88.364 M17.08,88.646c0.254,0.604,0.249,0.596,0.853,0.852
		C17.795,88.827,17.751,88.784,17.08,88.646 M44.048,88.646c0.103,0.723,0.03,1.042-0.284,1.704c1.221,1.162,2.826,0.004,3.123-1.42
		L44.048,88.646 M156.89,88.79c-0.18,0.178,0.104,0.46,0.282,0.282S157.067,88.612,156.89,88.79 M162.802,88.837
		c-0.015,0.016-0.031,0.315,0.095,0.188C162.912,89.01,162.93,88.71,162.802,88.837 M170.846,88.837
		c0.017,0.016,0.031,0.315-0.095,0.188C170.734,89.01,170.72,88.71,170.846,88.837 M15.66,88.931
		c0.278,0.507,0.258,0.452,0.852,0.567L15.66,88.931 M52.186,89.024c-0.126,0.128,0.173,0.11,0.189,0.096
		C52.501,88.993,52.201,89.01,52.186,89.024 M141.701,88.931c-0.364,1.118-0.996,1.048-1.419,0H141.701 M172.927,88.931v1.136
		h-0.567v-1.136H172.927 M176.617,88.931c-0.218,0.334-0.233,0.349-0.567,0.567C176.204,89.035,176.153,89.085,176.617,88.931
		 M166.113,89.215l0.285,1.136C165.929,89.951,165.9,89.796,166.113,89.215 M38.653,89.498v0.853h0.568v-0.853H38.653
		 M135.456,90.066c1.067,0.712,1.65,1.537,1.419,2.839l1.419,0.283C138.167,91.801,137.212,89.136,135.456,90.066 M154.759,89.498
		c-0.453,1.472,0.244,3.6-1.419,4.259c0.556-1.42,0.568-2.749,0.568-4.259H154.759 M144.729,89.971
		c0.016,0.017,0.033,0.315-0.095,0.19C144.618,90.146,144.604,89.846,144.729,89.971 M169.805,89.783
		c-0.167,0.745-0.5,1.312-0.852,1.986c-0.187-0.784-0.031-1.245,0.284-1.986H169.805 M174.347,89.783l-0.283,0.283L174.347,89.783
		 M175.483,89.783l-0.853,1.419c-0.017-0.558,0.086-0.888,0.284-1.419H175.483 M149.933,90.635c0.465-0.155,0.413-0.104,0.568-0.568
		C150.168,90.286,150.153,90.302,149.933,90.635 M116.721,91.485c0.506-0.351,0.833-0.608,1.135-1.135
		C117.026,90.521,116.763,90.63,116.721,91.485 M53.983,92.622C55.942,91.476,54.077,89.986,53.983,92.622 M100.255,93.757
		c1.148-1.671,1.752-2.062,3.69-1.42C102.91,89.645,100.247,91.535,100.255,93.757 M156.179,90.917
		c-0.389,0.545-0.384,0.487-0.283,1.137C156.196,91.586,156.256,91.46,156.179,90.917 M144.256,91.485
		c-0.28,0.421-0.283,0.342-0.283,0.852C144.474,92.06,144.527,91.991,144.256,91.485 M107.068,91.77
		c0.266,0.554,0.396,0.725,0.851,1.136C107.943,92.119,107.832,91.983,107.068,91.77 M110.758,91.77l1.137,1.703
		C111.984,92.529,111.602,92.14,110.758,91.77 M145.106,91.77v0.567h0.853V91.77H145.106 M157.029,91.77v0.853l0.568-0.853H157.029
		 M169.521,91.77v1.703h-0.567c-0.036-0.779-0.102-0.925-0.853-1.136L169.521,91.77 M56.821,92.054
		c0.061,0.777,0.087,0.972,0.853,1.135C57.463,92.572,57.36,92.417,56.821,92.054 M142.411,92.196
		c-0.178,0.178,0.104,0.461,0.282,0.283C142.873,92.302,142.589,92.018,142.411,92.196 M173.211,92.054
		c-0.041,0.721-0.269,1-0.852,1.419C172.601,92.912,172.826,92.525,173.211,92.054 M58.81,92.337
		c-0.28,0.42-0.283,0.343-0.283,0.852C59.027,92.911,59.08,92.842,58.81,92.337 M63.067,92.337l0.851,0.285L63.067,92.337
		 M78.019,92.716c-0.126,0.126,0.173,0.11,0.188,0.095C78.334,92.685,78.034,92.699,78.019,92.716 M94.295,92.716
		c0.219,0,0.045,0.142-0.096,0.095L94.295,92.716 M126.088,92.716c0.22,0,0.045,0.142-0.096,0.095L126.088,92.716 M133.185,92.716
		c0.22,0,0.046,0.142-0.095,0.095L133.185,92.716 M142.269,92.905h-0.567c0.027,0.703,0.106,1.308,0.284,1.987
		c-0.774-0.581-0.871-1.029-0.852-1.987C138.869,93.436,142.233,96.974,142.269,92.905 M26.448,93.188v0.568h0.851v-0.568H26.448
		 M59.519,93.33c-0.178,0.178,0.106,0.464,0.284,0.286C59.98,93.437,59.698,93.152,59.519,93.33 M168.385,93.188
		c0.142,1.644-0.689,3.362-2.271,3.975C165.934,95.091,166.309,93.915,168.385,93.188 M128.644,93.757
		c-0.165,0.765-0.358,0.793-1.137,0.852C127.882,94.099,128.048,93.969,128.644,93.757 M71.868,94.135c0.252,0,0.252,0.38,0,0.38
		C71.615,94.515,71.615,94.135,71.868,94.135 M164.411,94.041l-0.568,1.702C164.456,95.208,164.596,94.839,164.411,94.041
		 M26.731,94.324l0.283,0.284L26.731,94.324 M95.003,94.467c-0.178,0.178,0.106,0.462,0.285,0.283
		C95.466,94.572,95.181,94.289,95.003,94.467 M132.617,94.893c-0.461,0.353-0.893,0.609-1.419,0.851
		C131.631,95.137,131.88,95.032,132.617,94.893 M160.153,95.177v0.851h0.852v-0.851H160.153 M93.727,96.596
		c0.682-0.302,1.004-0.521,1.419-1.135C94.385,95.671,94.089,95.894,93.727,96.596 M114.165,97.163v0.852
		c1.356,0.25,0.953,1.253-0.283,1.136v0.568c1.832-0.106,2.889-0.32,3.405,1.702c0.291-1.168,0.257-2.038-0.283-3.122h1.136
		l-0.568-0.284c1.43-0.718,2.403-1.018,3.976-0.566c-0.17-1.632,2.641-1.482,2.839,0c0.41-0.408,0.631-0.601,1.134-0.853
		c0.093,0.874,0.328,1.674,0.285,2.555l0.567-0.283c-0.095,1.064-1.526,3.357-1.136,1.702c-1.521,1.03,1.627,1.737,2.555,2.556
		c-1.192,0.297-1.849,0.464-2.271,1.702l1.419-0.282c-0.184,0.596-0.274,1.077-0.283,1.702l-1.419-0.567
		c-0.48,1.239-1.058,2.039-0.851,3.405c-2.332,0.499-3.209,1.376-5.679,1.137c0.637,1.173,1.574,1.652,2.84,1.987
		c-0.369-0.452-0.437-0.573-0.568-1.136c2.218-0.083,3.102-2.113,5.109,0c-1.875,0.465-3.45,1.604-5.394,1.703l0.567,1.135
		c-1.238,0.008-2.159,0.021-3.122,0.853c5.551,0.775,0.085,5.608,3.974,7.381c-0.872,1.262-1.988,1.191-3.406,1.135
		c0.822,0.719,1.411,1.148,1.421,2.272c-1.612-0.355-2.211,0.859-3.124,1.987c1.061,0.085,2.165-0.261,3.124-0.568
		c-0.349,2.635-2.272,1.444-4.26,1.419c1.158,1.624,1.103,3.029-1.135,3.407l0.282-3.124c-2.183,0.736-4.894,0.097-7.097-0.283
		l0.853,0.568c-0.933,0.075-1.693-0.518-2.555-0.853c1.67-2.315,5.878-3.122-0.852-3.122c0.608,1.824-1.847,3.404-1.704,3.975
		c-1.666-0.179-8.835,3.695-8.516,0.852c-1.036,0.628-2.191,0.929-3.123,1.702c2.421,0.613,3.665,2.253,4.542,4.543
		c-2.385-0.826-2.794-2.551-5.677-2.556c1.04,1.307,4.072,4.611,5.677,4.826c-3.078,0.879-6.13-3.142-8.516-4.542
		c-0.128,0.939-0.295,2.284-1.474,2.401c-2.241,0.221-2.675-2.343-4.321-2.698c-2.961-0.641-5.454,1.254-8.399,0.864
		c0.928,0.698,1.651,1.131,1.986,2.271c-0.849-0.439-1.444-0.913-1.986-1.704c-3.861,2.476-7.21-1.77-11.07-1.987
		c0.496-0.182,0.887-0.242,1.42-0.283l-1.137-0.283c1.404-0.422,3.584,0.108,4.826,0.852c0.431-0.846,0.764-1.032,1.703-1.136
		l-2.839-1.702c2.367-1.604,4.476-0.559,7.097,0c-1.284-0.924-2.903-1.162-4.258-1.988c2.878-0.458,5.39,1.71,8.231,1.136
		c-2.405-0.88-4.761-1.483-7.096-2.555c0.613-0.876,0.828-1.955,1.703-2.556c-2.04-1.092,1.671-2.756-1.136-3.974
		c0.431-0.845,0.764-1.033,1.702-1.136v-0.568c-1.331-0.018-2.495-0.074-3.405-1.135c0.855,0.063,1.296,0.342,1.986,0.853
		l-0.851-1.705c1.897-0.275,2.786,1.018,4.542,1.42c-0.54,0.854-0.971,1.151-1.986,1.136c0.516,0.601,0.996,1.061,1.702,1.42
		l-0.283-1.137c2.081,0.088,3.189,0.756,2.271,2.839c1.076,0.25,1.503,0.601,1.135,1.704c1.553,0.043,2.982,0.445,4.542,0.283
		l-0.282,1.419l-3.976-0.566l0.852,0.566c-1.896,0.709-3.341,1.496-5.394,1.137c1.536,0.875,3.129,1.039,4.826,1.419
		c0.104-1.96,4.239-0.601,5.394,0c0.733-2.082,7.044-2.225,9.084-2.271l-0.852-0.566c4.821-1.622,12.161,0.244,11.354-7.382
		c-0.748,0.913-1.396,1.223-2.555,1.419c1.273-2.33,3.485-2.003,4.825-3.974c-0.996,0.469-1.737,0.694-2.839,0.568l0.853-1.704
		c-1.48,0.866-2.14,1.039-3.122-0.568c2.591-0.66,4.823-1.749,7.38-2.554c-2.294-0.489-4.427,1.13-6.812,1.135v-0.568
		c1.252-0.25,3.455-1.526,4.541-2.271c-0.948-0.082-1.619-0.126-2.271-0.851c-0.655,1.001-0.986,0.613-1.987,0.282
		c-0.203,0.964-0.488,1.362-1.419,1.705c0.235-0.806,1.196-2.088,0.852-2.556c4.185-1.935,5.205-8.641,10.788-7.665v-0.568h-1.703
		l3.122-2.838c-1.512-0.021-1.374-1.393,0.021-1.64C114.863,95.249,116.015,96.729,114.165,97.163 M127.791,95.461
		c-0.219,0.333-0.234,0.348-0.567,0.566C127.378,95.563,127.326,95.614,127.791,95.461 M129.494,95.743l-0.851,0.284L129.494,95.743
		 M110.191,96.312c-0.404,1.041-0.662,1.352,0,2.271c-0.64,0.165-0.635,0.188-0.567,0.853c-0.932-0.354-1.35-0.772-1.705-1.703
		C108.78,97.37,109.331,96.672,110.191,96.312 M118.423,96.312h2.556c-0.951,0.355-1.834,0.368-2.839,0.284L118.423,96.312
		 M133.752,96.88c-0.585,0.205-1.078,0.258-1.702,0.283C132.6,96.399,132.934,96.473,133.752,96.88 M148.372,96.454
		c-0.179,0.178,0.106,0.461,0.284,0.283S148.55,96.276,148.372,96.454 M165.831,96.596c-0.309,0.603-0.533,0.829-1.137,1.136
		C164.961,97.021,165.12,96.861,165.831,96.596 M168.669,96.596c-0.583,1.104-1.081,1.823-2.271,2.271
		C166.909,97.721,167.465,97.013,168.669,96.596 M69.312,96.88l0.852,1.702c0.525-0.435,0.655-0.759,0.853-1.419L69.312,96.88
		 M75.274,98.582c0.942-0.253,2.345-0.725,2.554-1.702C76.569,97.062,75.823,97.405,75.274,98.582 M65.338,97.163v0.568h0.853
		v-0.568H65.338 M129.21,97.448l-0.851,0.566C128.637,97.508,128.617,97.563,129.21,97.448 M147.945,97.448
		c0.116,0.593,0.062,0.573,0.568,0.851L147.945,97.448 M10.55,97.731c0.278,0.505,0.259,0.452,0.852,0.567L10.55,97.731
		 M159.301,98.582c0.604-0.255,0.598-0.248,0.853-0.851C159.55,97.986,159.557,97.98,159.301,98.582 M166.02,97.921
		c0.017,0.016,0.031,0.315-0.094,0.188C165.909,98.094,165.894,97.794,166.02,97.921 M2.886,98.015
		c2.408,4.525,9.622,11.767,14.761,13.059c-0.263-1.068-0.729-1.495-1.702-1.988l0.283,0.568c-1.949-1.869-1.805-6.849-4.541-7.664
		l1.134,2.271c-1.193-0.652-2.686-1.687-3.405-2.84l1.703,0.568c-0.753-0.816-1.552-1.239-2.556-1.702h1.705
		c-0.582-3.446-2.781-0.327-4.741-0.674C4.49,99.432,3.968,98.279,2.886,98.015 M127.507,98.015v0.567h-0.852v-0.567H127.507
		 M83.791,99.15c0.574-0.233,0.773-0.355,1.134-0.852C84.351,98.532,84.151,98.654,83.791,99.15 M173.353,98.725
		c-0.178,0.178,0.106,0.462,0.284,0.284C173.815,98.83,173.53,98.547,173.353,98.725 M36.479,99.055
		c-0.017,0.017-0.032,0.315,0.095,0.19C36.589,99.23,36.604,98.93,36.479,99.055 M156.179,99.15
		c-0.336,0.337-0.434,0.45-0.568,0.851c-1.458-0.493-1.625,1.078-0.852,1.988l0.284-0.283c-0.254-0.653-0.32-1.006-0.284-1.705
		C155.652,100.385,156.66,100.356,156.179,99.15 M175.197,99.15c-0.255,0.546-0.305,0.568-0.851,0.851
		C174.602,99.399,174.596,99.405,175.197,99.15 M59,99.528c-0.128,0.128,0.172,0.11,0.188,0.095
		C59.315,99.498,59.015,99.514,59,99.528 M76.126,100.569c1.209,0.718,2.118,0.283,2.839-0.851
		C78.012,100.034,77.117,100.399,76.126,100.569 M68.744,100.001l-0.282,1.705h0.568l0.282-1.705H68.744 M114.449,100.287
		l-0.284,1.134C114.636,101.022,114.663,100.867,114.449,100.287 M8.562,101.706c-1.041,0.107-1.897-0.436-2.838-0.853
		C6.841,100.55,7.611,101.154,8.562,101.706 M129.21,100.569c-0.136,0.671-0.18,0.715-0.851,0.852
		C128.614,100.818,128.608,100.825,129.21,100.569 M110.191,100.854c0.369,1.536-0.226,2.332-0.853,3.691
		c1.332-0.137,2.24-0.458,2.839-1.705c1.126,0.223,1.533,0.018,1.704-1.134l-1.419,0.283
		C112.688,101.025,111.091,101.181,110.191,100.854 M166.398,101.421v0.853h0.567v-0.853H166.398 M60.229,101.706
		c0.138,0.671,0.181,0.713,0.852,0.852C60.797,102.012,60.774,101.961,60.229,101.706 M156.651,102.084
		c-0.125,0.126,0.174,0.11,0.19,0.095C156.967,102.052,156.668,102.069,156.651,102.084 M66.19,103.408l1.135-0.568
		c0.261,0.741,0.479,0.991,1.137,1.421C68.284,102.822,66.807,101.301,66.19,103.408 M105.649,102.273
		c-0.238,0.891-0.555,1.12-1.42,1.419C104.46,102.768,104.723,102.505,105.649,102.273 M129.312,102.58
		c0.646-0.221,0.996,0.894,0.325,0.996C129.084,103.661,128.72,102.782,129.312,102.58 M137.728,102.273
		c1.19,1.189-1.302,1.611-1.137,2.271c-0.817-0.826-0.537-1.729,0.568-1.987l-0.568,0.851
		C137.13,103.092,137.367,102.787,137.728,102.273 M145.106,102.84l0.853-0.566C145.364,102.388,145.386,102.334,145.106,102.84
		 M152.771,102.558l-0.567,0.851L152.771,102.558 M34.396,102.84c0.278,0.507,0.258,0.453,0.852,0.568L34.396,102.84
		 M70.164,104.261c0.948-0.167,1.432-0.342,1.987-1.136C71.05,103.022,70.63,103.253,70.164,104.261 M11.118,105.111
		c-1.182-0.164-1.627-0.569-1.987-1.703C10.211,103.698,10.709,104.064,11.118,105.111 M111.043,103.408
		c-0.155,0.464-0.104,0.413-0.567,0.568C110.694,103.644,110.708,103.629,111.043,103.408 M36.005,104.071
		c-0.127,0.125,0.173,0.11,0.188,0.094C36.32,104.039,36.021,104.056,36.005,104.071 M69.312,104.545
		c-0.214,1.006-0.237,1.503,0.852,1.702l-0.283-1.702H69.312 M60.229,104.827c0.213,0.596,0.343,0.762,0.852,1.137
		C61.02,105.186,60.994,104.993,60.229,104.827 M61.932,107.383c4.023,0.851,3.526-3.57,1.644-2.018
		C62.897,105.927,62.672,106.81,61.932,107.383 M72.151,104.827l-0.283,1.42c0.869,0.353,2.946,2.589,3.635,2.467
		C76.833,108.478,72.732,105.078,72.151,104.827 M101.391,104.827l-0.567,0.853v-0.853H101.391 M105.932,105.68
		c0.618-0.211,0.773-0.314,1.137-0.853C106.29,104.888,106.097,104.914,105.932,105.68 M109.056,105.111l-0.284,1.136
		c0.538-0.363,0.641-0.518,0.853-1.136H109.056 M17.364,105.396l0.568,0.852v-0.852H17.364 M152.204,107.099
		c0.79,0.069,1.283-0.2,1.986-0.566l-0.566,1.134c0.99-0.197,0,0.794,0,1.987c1.316-1.139,1.275-2.641,1.419-4.258
		C153.846,105.661,153.148,106.356,152.204,107.099 M67.609,105.68c0.164,0.765,0.357,0.792,1.135,0.853
		C68.369,106.021,68.204,105.892,67.609,105.68 M167.438,105.869c0.017,0.015,0.032,0.315-0.094,0.188
		C167.329,106.043,167.312,105.742,167.438,105.869 M151.069,105.964c-0.287,0.701-0.512,0.989-1.137,1.419
		C150.266,106.769,150.546,106.427,151.069,105.964 M37.52,106.532l0.567,0.851v-0.851H37.52 M66.758,106.532
		c-0.147,0.67-0.238,1.302-0.284,1.986c0.661-0.517,1.098-0.925,1.42-1.703L66.758,106.532 M139.715,106.532v0.566h1.134v-0.566
		H139.715 M40.358,107.383v1.42l-1.987-0.852c0.604,2.363,1.458,1.74,3.406,2.271c-0.165-0.766-0.357-0.792-1.136-0.851
		c0.327-0.679,0.49-1.239,0.567-1.988H40.358 M117.855,107.383v1.136h0.567v-1.136H117.855 M144.256,107.383v0.852h0.568v-0.852
		H144.256 M100.54,107.666c-0.489,1.812-1.264,2.932-3.124,3.407C98.135,109.572,99.068,108.46,100.54,107.666 M67.609,108.234
		c0.421,0.675,0.739,1.011,1.421,1.419C68.657,108.893,68.389,108.568,67.609,108.234 M62.784,108.519
		c-0.082,1.719,1.27,2.447,2.839,2.271C65.13,109.386,63.962,109.251,62.784,108.519 M71.3,108.519
		c0.061,0.777,0.086,0.971,0.852,1.135c-0.169-0.846-0.444-0.491-0.283-1.135H71.3 M130.631,108.803l-0.853,0.282L130.631,108.803
		 M165.547,108.803c-0.154,0.463-0.104,0.413-0.567,0.568C165.198,109.035,165.212,109.021,165.547,108.803 M66.664,109.181
		c-0.128,0.126,0.173,0.11,0.188,0.095C66.979,109.149,66.68,109.165,66.664,109.181 M93.442,109.085l-0.853,0.286L93.442,109.085
		 M135.645,109.559c0.016,0.017,0.032,0.315-0.095,0.19C135.534,109.733,135.52,109.434,135.645,109.559 M148.23,109.371
		l-0.285,1.986l-0.851-1.704L148.23,109.371 M112.32,110.079c-0.178,0.179,0.104,0.463,0.284,0.284
		C112.782,110.186,112.498,109.901,112.32,110.079 M140.849,109.938c0.034,0.888-0.178,1.411-0.851,1.986
		C140.142,111.132,140.371,110.586,140.849,109.938 M96.281,110.222v0.568h-0.853v-0.568H96.281 M99.121,113.061
		c-2.438-0.29-5.552-0.418-7.95,0c0.943-0.937,2.09-1.422,2.838-2.556C95.899,111.088,98.14,111.105,99.121,113.061
		 M151.638,112.492l0.851-0.283l-0.567,1.135c1.121-0.736,1.269-1.542,1.136-2.839C152.123,110.971,151.893,111.498,151.638,112.492
		 M42.629,110.79c0.356,0.73,0.896,1.254,1.702,1.419C44.068,111.171,43.675,110.933,42.629,110.79 M157.598,110.79
		c-0.448,0.961-0.94,1.782-1.135,2.839c0.81-0.864,1.326-1.719,1.703-2.839H157.598 M62.926,111.216
		c-0.179,0.178,0.106,0.46,0.284,0.282S63.104,111.037,62.926,111.216 M145.392,111.073c-0.362,0.495-0.561,0.619-1.136,0.851
		C144.618,111.386,144.773,111.283,145.392,111.073 M146.433,111.263c0.016,0.016,0.031,0.316-0.095,0.188
		C146.322,111.436,146.306,111.136,146.433,111.263 M148.704,111.546c0.015,0.016,0.031,0.315-0.096,0.19
		C148.594,111.72,148.576,111.421,148.704,111.546 M40.073,111.642c0.676,0.43,1.188,0.521,1.987,0.567v-0.567H40.073
		 M18.499,111.924c0.921,1.609,2.343,3.087,3.974,3.976C21.889,113.869,20.294,112.873,18.499,111.924 M141.417,111.924
		c-0.578,1.761-1.083,3.429-3.123,3.691C139.265,114.434,140.136,112.708,141.417,111.924 M147.945,112.02
		c0.253,0,0.253,0.379,0,0.379C147.693,112.398,147.693,112.02,147.945,112.02 M143.404,112.209
		c-0.265,0.711-0.425,0.869-1.136,1.135C142.533,112.633,142.693,112.475,143.404,112.209 M50.482,112.587
		c-0.126,0.127,0.174,0.11,0.189,0.096C50.798,112.555,50.499,112.572,50.482,112.587 M153.624,113.344
		c0.553,0.061,0.604-0.008,1.135-0.283C154.206,113,154.155,113.068,153.624,113.344 M82.938,116.468
		c-4.66,0.469-5.187-5.655-1.858-2.07C81.729,115.097,82.207,115.829,82.938,116.468 M34.869,113.723
		c-0.126,0.126,0.174,0.11,0.189,0.095C35.185,113.691,34.885,113.706,34.869,113.723 M151.542,113.723
		c-0.127,0.126,0.173,0.11,0.189,0.095C151.857,113.691,151.558,113.706,151.542,113.723 M96.564,115.048l-3.406,0.283
		C93.998,113.833,95.363,113.939,96.564,115.048 M123.819,114.257c1.43-0.312,5.175,0.821,4.089,2.904
		c-0.616,1.184-2.338,1.383-3.197,2.394c-0.468,0.551-0.92,2.873-1.705,2.873C122.796,122.428,121.571,114.748,123.819,114.257
		 M141.701,114.007c0.252,0,0.252,0.378,0,0.378S141.449,114.007,141.701,114.007 M76.693,114.195l-0.567,0.853
		c0.506,0.278,0.452,0.258,0.567,0.852c-1.16-0.209-1.05-0.764-0.567-1.704H76.693 M154.477,114.195l-0.286,1.136
		c0.483-0.245,0.764-0.457,1.137-0.852L154.477,114.195 M44.616,114.479c0.003,0.906-0.115,1.497,0.852,1.704
		c0-0.753,0.437-0.568,1.135-0.568C46.026,115,45.41,114.758,44.616,114.479 M92.59,114.479c-0.243,1.787-1.441,2.206-3.121,1.988
		C90.229,115.287,91.211,114.697,92.59,114.479 M150.218,114.479l-0.567,1.136C150.179,115.256,150.322,115.11,150.218,114.479
		 M155.896,119.021c0.599-0.81,1.553-4.031,2.376-4.294C160.176,114.118,157.325,118.518,155.896,119.021 M100.255,115.048
		c0.391,0.469,0.521,0.496,1.136,0.567c-0.926,1.055-2.663,0.542-3.975,0.568C97.977,114.775,99.083,115.661,100.255,115.048
		 M106.784,116.468c0.941-0.251,1.737-0.608,2.555-1.137C108.322,114.946,107.096,115.401,106.784,116.468 M111.231,115.142
		c-0.125,0.127,0.175,0.111,0.189,0.096C111.547,115.11,111.247,115.126,111.231,115.142 M147.945,115.048l-0.283,0.283
		L147.945,115.048 M78.965,115.331c-0.067,0.761,0.065,1.309,0.283,1.987c-0.858-0.353-1.432-0.67-1.986-1.419L78.965,115.331
		 M88.049,115.331c-0.658,0.312-1.267,0.455-1.987,0.568C86.732,115.506,87.271,115.395,88.049,115.331 M152.488,117.035
		c-0.673,0.213-1.116,0.451-1.703,0.852c1.528-0.098,2.522-1.229,3.123-2.556C152.853,115.589,152.496,115.938,152.488,117.035
		 M40.358,115.899c0.381,0.361,0.681,0.579,1.134,0.851l0.285-1.135L40.358,115.899 M158.166,116.184
		c0.333-0.22,0.348-0.234,0.568-0.568C158.27,115.771,158.321,115.719,158.166,116.184 M43.953,115.994
		c-0.125,0.125,0.174,0.11,0.19,0.095C44.269,115.962,43.969,115.978,43.953,115.994 M85.21,116.468v0.567h-0.852v-0.567H85.21
		 M134.036,116.468c-0.275,0.707-0.419,0.894-1.135,1.135C133.144,116.886,133.329,116.743,134.036,116.468 M42.061,116.75
		l0.851,0.285L42.061,116.75 M23.893,117.035c0.388,0.685,0.735,1.026,1.419,1.42C24.96,117.659,24.698,117.363,23.893,117.035
		 M44.758,117.176c-0.179,0.179,0.106,0.463,0.284,0.285S44.937,116.998,44.758,117.176 M95.997,123.563
		c-1.152-0.125-2.273-0.332-3.407-0.567c0.223-0.946,0.752-3.758,0.568-4.541l0.851,0.282l-0.566-1.702
		c3.471,0.015,8.928,0.553,5.188,4.911C97.797,122.918,96.137,122.102,95.997,123.563 M140.849,117.035l-0.566,0.852v-0.852H140.849
		 M142.554,118.737c0.906-0.438,1.657-0.896,2.271-1.702C143.6,117.199,143.077,117.625,142.554,118.737 M84.358,117.887
		c-0.595-0.115-0.573-0.062-0.853-0.568L84.358,117.887 M88.9,117.318l0.284,1.419l-1.988-0.282
		C87.736,117.958,88.237,117.626,88.9,117.318 M75.841,117.696c0.221,0,0.047,0.143-0.094,0.096L75.841,117.696 M79.816,117.603
		l-0.852,0.284L79.816,117.603 M77.734,118.075c0.017,0.017,0.031,0.315-0.095,0.189C77.623,118.25,77.608,117.949,77.734,118.075
		 M105.081,118.455l-0.283,0.851C105.526,119.149,105.609,118.983,105.081,118.455 M32.125,118.737v1.704
		c-0.966-0.207-0.849-0.798-0.851-1.704H32.125 M51.995,119.021c-0.371,0.395-0.65,0.604-1.134,0.853
		C51.224,119.335,51.379,119.232,51.995,119.021 M139.902,119.211c0.017,0.015,0.033,0.315-0.095,0.19
		C139.792,119.385,139.777,119.084,139.902,119.211 M65.055,119.306l-0.284,0.283L65.055,119.306 M71.3,119.306
		c-0.428,0.193-0.656,0.234-1.136,0.283C70.592,119.396,70.822,119.354,71.3,119.306 M125.992,119.495
		c0.017,0.016,0.033,0.315-0.094,0.188C125.882,119.669,125.867,119.368,125.992,119.495 M139.146,119.306
		c-0.432,0.64-0.769,1.009-1.419,1.42C138.147,120.051,138.466,119.714,139.146,119.306 M33.545,119.684
		c0.253,0,0.253,0.378,0,0.378S33.292,119.684,33.545,119.684 M62.972,120.348c0.018,0.015,0.033,0.315-0.094,0.188
		C62.862,120.52,62.847,120.22,62.972,120.348 M35.815,121.576c-0.786-0.125-1.184-0.249-1.702-0.851
		C35.019,120.728,35.608,120.61,35.815,121.576 M38.938,120.726l-0.852,0.568L38.938,120.726 M102.811,120.726l-0.284,1.135
		c-0.194-0.427-0.234-0.657-0.284-1.135H102.811 M39.79,121.008c0.803,0.568,1.28,1.102,1.702,1.988
		C40.359,122.876,39.377,122.274,39.79,121.008 M151.495,121.15c-0.178,0.178,0.104,0.462,0.282,0.284
		C151.957,121.256,151.673,120.973,151.495,121.15 M36.951,121.388c0.22,0,0.045,0.141-0.095,0.094L36.951,121.388 M71.868,121.294
		c-0.165,0.766-0.357,0.791-1.136,0.851C71.095,121.606,71.25,121.504,71.868,121.294 M127.791,121.294
		c0.99,1.231,3.846,1.683,5.394,1.985c-0.519,2.914-3.082,5.078-5.961,5.11l0.567-1.703
		C124.3,129.469,125.218,122.647,127.791,121.294 M141.701,121.576c-0.255,0.604-0.249,0.596-0.853,0.852
		C141.104,121.825,141.098,121.832,141.701,121.576 M35.247,122.996h-1.42v-1.136C34.589,122.117,34.836,122.309,35.247,122.996
		 M81.52,122.145v0.568c-0.955,0-1.761,0.202-1.986-0.853L81.52,122.145 M105.081,122.713c0.603-0.256,0.596-0.249,0.851-0.853
		C105.33,122.116,105.336,122.109,105.081,122.713 M105.932,123.279c1.471,0.235,2.718,0.199,3.124-1.419
		C107.816,122.104,106.69,122.205,105.932,123.279 M149.933,122.996c0.561-0.241,0.949-0.466,1.42-0.852
		C150.566,122.216,150.368,122.335,149.933,122.996 M67.609,122.428c-0.946,0.936-1.816,1.104-3.123,1.136l0.284-1.419
		C65.746,122.153,66.655,122.224,67.609,122.428 M85.777,122.145v0.568h-1.135v-0.568H85.777 M113.029,123.847
		c0.988-0.357,1.438-0.671,1.704-1.702C113.767,122.508,113.394,122.882,113.029,123.847 M46.035,122.428v0.568l1.988-0.283
		C47.35,122.479,46.749,122.442,46.035,122.428 M136.308,122.428c-0.255,0.603-0.249,0.597-0.852,0.852
		C135.711,122.678,135.705,122.683,136.308,122.428 M86.062,124.699c-1.724-0.022-3.28-0.231-3.975-1.986
		C83.747,122.938,85.443,122.927,86.062,124.699 M98.553,122.713c-0.138,0.671-0.181,0.713-0.853,0.851
		C97.955,122.961,97.949,122.968,98.553,122.713 M109.624,123.847l2.271-0.567C110.917,122.612,109.925,122.565,109.624,123.847
		 M147.945,124.132c0.547-0.256,0.568-0.305,0.853-0.853C148.127,123.416,148.083,123.461,147.945,124.132 M149.225,123.421
		c-0.179,0.178,0.105,0.463,0.283,0.285C149.685,123.527,149.402,123.243,149.225,123.421 M49.442,123.563
		c0.303,1.142,0.861,1.277,1.986,1.136C50.847,123.997,50.322,123.786,49.442,123.563 M143.973,123.563
		c0.154,0.464,0.103,0.413,0.567,0.568C144.32,123.798,144.306,123.784,143.973,123.563 M67.894,123.847v0.568h-1.136v-0.568H67.894
		 M70.164,123.847c0.52,1.465-1.217,0.711-1.702,0C69.068,123.916,69.577,124.002,70.164,123.847 M136.022,123.847
		c-0.353,1.146-0.761,1.645-1.986,1.705l0.853,0.851l-1.704,0.284c0.16-1.29,1.437-1.911,2.271-2.84H136.022 M72.436,125.834
		c0.928,0.586,2.079,0.784,3.123,1.137c-0.669-1.297-0.586-2.03,0.851-2.556C74.739,123.901,73.888,125.312,72.436,125.834
		 M123.817,124.415l-0.852,0.568C123.244,124.478,123.224,124.53,123.817,124.415 M101.106,125.834
		c1.013-0.235,1.85-0.343,2.555-1.135C102.487,124.74,101.847,124.896,101.106,125.834 M147.095,124.983
		c0.47,0.115,0.637,0.088,1.136,0C147.718,124.82,147.643,124.851,147.095,124.983 M150.218,124.793c0.252,0,0.252,0.381,0,0.381
		S149.966,124.793,150.218,124.793 M143.546,125.126c-0.178,0.178,0.106,0.461,0.284,0.283S143.725,124.947,143.546,125.126
		 M65.906,125.361c0.253,0,0.253,0.379,0,0.379C65.654,125.74,65.654,125.361,65.906,125.361 M75.559,125.268v0.566h1.135v-0.566
		H75.559 M115.584,125.268c0.107,0.933,0.23,1.385,1.137,1.703C116.596,126.06,116.498,125.534,115.584,125.268 M47.312,125.977
		c-0.178,0.178,0.106,0.462,0.284,0.283C47.775,126.082,47.49,125.799,47.312,125.977 M87.48,126.402
		c-0.464-0.155-0.413-0.104-0.567-0.568C87.247,126.055,87.261,126.069,87.48,126.402 M96.281,126.402
		c1.242,0.656,2.592,0.741,3.974,0.852v-0.567C98.895,126.593,97.639,126.152,96.281,126.402 M80.667,126.498
		c0.221,0,0.047,0.14-0.094,0.095L80.667,126.498 M134.889,127.064c0.252,0,0.252,0.379,0,0.379
		C134.636,127.443,134.636,127.064,134.889,127.064 M52.706,127.396c-0.178,0.178,0.105,0.462,0.283,0.282
		C53.167,127.501,52.884,127.219,52.706,127.396 M142.836,127.254l-1.135,1.136c0.92,0.045,1.243-0.37,1.703-1.136H142.836
		 M132.617,127.539c-0.267,0.711-0.425,0.868-1.136,1.134C131.659,127.882,131.825,127.716,132.617,127.539 M84.643,128.39
		l0.282,0.283c0.438-0.359,0.582-0.423,1.137-0.567C85.408,127.885,85.129,127.898,84.643,128.39 M64.486,128.105l1.137,0.284
		c-0.538,0.12-0.868,0.093-1.419,0L64.486,128.105 M64.204,130.378c-0.905-0.229-1.622-0.4-2.557-0.286l0.568,1.137l-1.419,0.283
		l0.283-1.702C56.566,130.18,61.905,127.458,64.204,130.378 M66.474,129.525c-0.761,0.404-1.121,0.359-1.703-0.284L66.474,129.525
		 M132.333,129.525c-1.074,2.199-3.332,1.921-5.109,2.839C127.745,130.415,130.493,129.455,132.333,129.525 M132.901,129.336
		l0.095,0.096C132.856,129.477,132.681,129.336,132.901,129.336 M66.19,131.229l-0.853-0.568
		C65.933,130.775,65.912,130.723,66.19,131.229 M103.093,132.08c-0.873-0.314-1.316-0.566-1.702-1.42
		C102.262,130.985,102.681,131.242,103.093,132.08 M55.12,131.323c0.251,0,0.251,0.379,0,0.379
		C54.867,131.702,54.867,131.323,55.12,131.323 M60.513,131.229v0.568H59.66v-0.568H60.513 M73.854,131.512
		c0.971,0.402,1.807,0.442,2.839,0.285C75.743,131.352,74.885,131.438,73.854,131.512 M68.178,131.512
		c-0.52,0.375-0.786,0.478-1.42,0.568C67.263,131.738,67.575,131.625,68.178,131.512 M99.403,131.512
		c1.316,0.675,3.091,1.429,3.689,2.839C101.746,134.101,99.514,133.054,99.403,131.512 M132.617,132.08
		c-0.582,0.996-1.158,1.409-2.271,1.703l1.704-1.703H132.617 M70.164,132.364c0.638,0.763,1.307,0.957,2.271,1.135
		C71.795,132.798,71.075,132.596,70.164,132.364 M115.016,135.202l1.137,0.568c-1.537,0.792-3.467,0.7-5.109,0.284
		c0.659-0.312,1.267-0.455,1.986-0.568l-0.852-1.419l0.852,0.283l-0.852-0.852C115.204,131.429,117.562,134.658,115.016,135.202
		 M60.513,133.783l-1.135-0.567C60.032,133.058,60.158,133.216,60.513,133.783 M51.429,133.216l1.419,1.135
		C52.048,134.31,51.557,134.032,51.429,133.216 M110.758,133.216c-0.436,0.566-0.718,0.684-1.419,0.852
		C109.525,133.201,109.909,133.233,110.758,133.216 M71.583,133.783l-2.553,0.567C69.747,134.604,71.773,134.934,71.583,133.783
		 M80.101,133.783v0.853h-0.853v-0.853H80.101 M77.546,135.771c-0.471,0.115-0.638,0.088-1.137,0
		C76.923,135.606,76.997,135.64,77.546,135.771 M126.655,135.486c-0.889,1.209-2.238,1.735-3.689,1.987
		C123.744,135.8,124.903,135.524,126.655,135.486 M79.816,135.771l1.703,1.136l-0.284,0.284
		C80.493,136.849,79.946,136.608,79.816,135.771 M79.533,136.622c-0.417,0.614-0.738,0.834-1.421,1.135
		C78.477,137.056,78.772,136.833,79.533,136.622 M83.506,136.622l0.285,1.42c-0.862-0.285-0.992-0.53-0.853-1.42H83.506
		 M107.919,136.622c-0.255,0.603-0.247,0.597-0.851,0.852C107.323,136.929,107.374,136.906,107.919,136.622 M114.733,138.042
		l-1.137,0.283c0.535,1.034-3.717,2.932-4.825,3.123c0.026-0.746-0.273-0.88,0.567-1.136c-1.328-0.666-2.533-0.408-3.974-0.284
		C106.029,137.609,112.89,136.086,114.733,138.042 M67.798,137.663c0.017,0.017,0.033,0.315-0.095,0.189
		C67.688,137.837,67.673,137.537,67.798,137.663 M65.906,139.462h-2.271C64.192,138.268,65.244,138.397,65.906,139.462
		 M80.384,138.42c0.253,0,0.253,0.378,0,0.378C80.132,138.798,80.132,138.42,80.384,138.42 M115.302,138.42
		c0.251,0,0.251,0.378,0,0.378C115.049,138.798,115.049,138.42,115.302,138.42 M82.372,138.894
		c-0.196,0.659-0.327,0.983-0.853,1.419l-0.567-1.703L82.372,138.894 M123.249,138.609c-1.289,1.428-4.096,2.484-5.962,2.839
		C118.983,140.067,121.028,138.741,123.249,138.609 M83.506,138.988c0.253,0,0.253,0.378,0,0.378
		C83.254,139.366,83.254,138.988,83.506,138.988 M109.907,139.744l0.851-0.282C110.254,139.188,110.185,139.244,109.907,139.744
		 M113.029,139.84c0.22,0,0.047,0.14-0.094,0.095L113.029,139.84 M71.583,140.028l-0.283,0.284L71.583,140.028 M87.196,146.274
		c-2.027-0.26-4.291-1.678-5.961-2.84c-0.156,3.108-9.6-1.986-11.923-1.986C72.163,138.235,85.716,142.706,87.196,146.274
		 M103.661,141.164l-0.851,0.284L103.661,141.164 M104.513,142.583c-0.438,0.36-0.581,0.423-1.134,0.568
		C103.764,142.73,103.938,142.686,104.513,142.583 M92.022,143.72v0.566h-1.986v-0.566H92.022 M101.106,143.72v0.566h-1.703v-0.566
		H101.106 M72.436,144.098l0.094,0.095C72.389,144.239,72.217,144.098,72.436,144.098 M94.295,144.002h2.838
		c-1.047,0.426-2.01,0.393-3.124,0.284L94.295,144.002 M95.997,144.854l-0.852,0.567C95.424,144.916,95.403,144.97,95.997,144.854z"
		/>
</g>
<g id="Layer_3">
	<g>
		<path fill="#FFFFFF" d="M95.536,181H92v15h4.394c1.204,0,2.114-0.775,2.706-1.428s0.9-2.215,0.9-3.786v-3.826
			c0-2-0.354-3.704-1.038-4.479S97.129,181,95.536,181z"/>
		<path fill="#FFFFFF" d="M98.104,174.623c0.696-0.703,0.896-2.214,0.896-3.886v-2.449c0-1.571-0.127-2.598-0.68-3.323
			c-0.554-0.724-1.294-0.965-2.523-0.965H92v12h3.151C96.523,176,97.409,175.328,98.104,174.623z"/>
		<path fill="#FFFFFF" d="M22.611,164.812C22.061,164.19,21.652,164,20.509,164H17v15h3.509c1.144,0,1.552-0.5,2.103-1.133
			c0.553-0.631,0.389-1.887,0.389-3.396v-6.581C23,166.379,23.164,165.436,22.611,164.812z"/>
		<path fill="#FFFFFF" d="M70.016,163.268c-2.397,0-4.016,1.438-4.016,4.315v23.693c0,2.897,1.618,4.347,4.016,4.347
			c2.377,0,3.984-1.449,3.984-4.347v-23.693C74,164.706,72.393,163.268,70.016,163.268z"/>
		<path fill="#FFFFFF" d="M120.516,163.268c-2.397,0-3.516,1.438-3.516,4.315v23.693c0,2.897,1.118,4.347,3.516,4.347
			c2.377,0,3.484-1.449,3.484-4.347v-23.693C124,164.706,122.893,163.268,120.516,163.268z"/>
		<path fill="#FFFFFF" d="M0,0v216h216V0H0z M31,174.043c0,3.53-0.979,6.279-2.699,8.125c-1.721,1.848-4.398,2.832-7.8,2.832H17v17
			h-7v-44h10.494c3.403,0,6.082,0.669,7.805,2.527c1.723,1.856,2.701,4.291,2.701,7.821V174.043z M56,202h-8v-19h-8v19h-6v-44h6v18
			h8v-18h8V202z M81,190.848c0,3.51-0.854,6.225-2.652,8.143s-4.363,2.878-7.736,2.878c-3.371,0-6.027-0.96-7.836-2.878
			c-1.808-1.918-2.775-4.633-2.775-8.143v-22.835c0-3.511,0.979-6.225,2.787-8.144c1.807-1.918,4.438-2.877,7.81-2.877
			s5.934,0.959,7.731,2.877c1.798,1.919,2.672,4.633,2.672,8.144V190.848z M107,190.971c0,3.387-0.957,6.279-2.731,8.055
			c-1.776,1.775-4.447,2.975-7.875,2.975H86v-44h9.965c3.53,0,5.523,0.567,7.164,2.22c1.644,1.654,1.871,3.935,1.871,7.363v1.562
			c0,4.489-0.827,7.438-3.807,8.847c3.429,1.327,5.807,4.459,5.807,9.398V190.971z M132,190.848c0,3.51-1.225,6.225-3.021,8.143
			s-4.547,2.878-7.919,2.878c-3.371,0-5.752-0.96-7.562-2.878c-1.806-1.918-2.498-4.633-2.498-8.143v-22.835
			c0-3.511,0.611-6.225,2.418-8.144c1.809-1.918,4.255-2.877,7.627-2.877s6.209,0.959,8.007,2.877
			c1.798,1.919,2.948,4.633,2.948,8.144V190.848z M156,170h-7v-2.417c0-2.877-1.289-4.315-3.605-4.315
			c-1.148,0-2.074,0.341-2.648,1.025c-0.573,0.684-0.893,1.78-0.893,3.29c0,1.225,0.234,2.378,0.736,3.46
			c0.503,1.081,1.14,2.056,1.93,2.923c0.789,0.867,1.662,1.734,2.625,2.603c0.964,0.866,1.921,1.775,2.882,2.724
			c0.959,0.949,1.83,1.954,2.616,3.015c0.785,1.062,1.427,2.327,1.927,3.796c0.5,1.47,0.75,3.052,0.75,4.745
			c0,3.53-0.877,6.25-2.632,8.158c-1.755,1.907-4.232,2.862-7.433,2.862c-3.199,0-5.626-0.955-7.526-2.862
			c-1.902-1.908-2.729-4.628-2.729-8.158V188h8v3.276c0,2.856,0.512,4.285,2.715,4.285c2.205,0,3.012-1.429,3.012-4.285
			c0-1.225-0.395-2.378-0.885-3.459c-0.489-1.082-1.193-2.057-1.966-2.923c-0.771-0.868-1.665-1.735-2.606-2.603
			c-0.942-0.867-1.924-1.775-2.91-2.724c-0.987-0.949-1.891-1.954-2.69-3.016s-1.457-2.327-1.968-3.796
			c-0.508-1.469-0.767-3.052-0.767-4.744c0-3.531,0.935-6.25,2.81-8.159c1.875-1.907,4.4-2.861,7.576-2.861s5.998,0.954,7.722,2.861
			c1.725,1.909,2.958,4.628,2.958,8.159V170z M166,202h-6v-6h6V202z M182,190.48c0,7.347-3.179,11.02-9.79,11.02
			c-1.471,0-2.21-0.041-3.21-0.122v-6.275c1,0.041,1.13,0.062,2.218,0.062c1.251,0,2.131-0.307,2.828-0.918
			c0.696-0.613,0.954-1.704,0.954-3.275V158h7V190.48z M207,170h-7v-2.417c0-2.877-1.396-4.315-3.713-4.315
			c-1.148,0-2.129,0.341-2.703,1.025c-0.574,0.684-0.921,1.78-0.921,3.29c0,1.225,0.223,2.378,0.723,3.46
			c0.504,1.081,1.133,2.056,1.925,2.923c0.788,0.867,1.658,1.734,2.621,2.603c0.963,0.866,1.922,1.775,2.88,2.724
			c0.959,0.949,1.83,1.954,2.615,3.015c0.786,1.062,1.427,2.327,1.926,3.796c0.5,1.47,0.75,3.052,0.75,4.745
			c0,3.53-0.877,6.25-2.632,8.158c-1.755,1.907-4.232,2.862-7.432,2.862c-3.2,0-5.519-0.955-7.42-2.862
			c-1.902-1.908-2.619-4.628-2.619-8.158V188h6v3.276c0,2.856,1.404,4.285,3.607,4.285c2.204,0,3.457-1.429,3.457-4.285
			c0-1.225-0.171-2.378-0.661-3.459c-0.49-1.082-1.083-2.057-1.856-2.923c-0.77-0.868-1.608-1.735-2.55-2.603
			s-1.896-1.775-2.883-2.724c-0.987-0.949-1.876-1.954-2.677-3.016c-0.8-1.062-1.45-2.327-1.961-3.796
			c-0.508-1.469-0.762-3.052-0.762-4.744c0-3.531,0.938-6.25,2.812-8.159c1.875-1.907,4.4-2.861,7.576-2.861
			s6.107,0.954,7.831,2.861c1.724,1.909,3.065,4.628,3.065,8.159V170z M207,148H10V10h197V148z"/>
	</g>
</g>
</svg>
